<svg fill="#CC0C5C" height="60" width="60" version="1.1" xmlns="http://www.w3.org/2000/svg" viewBox="0 0 453.5 453.5" xmlns:xlink="http://www.w3.org/1999/xlink" enable-background="new 0 0 453.5 453.5"><g id="SVGRepo_bgCarrier" stroke-width="0"></g><g id="SVGRepo_tracerCarrier" stroke-linecap="round" stroke-linejoin="round"></g><g id="SVGRepo_iconCarrier"> <g> <path d="m399.234,138.5h-117.484v-95.012c0-23.979-19.509-43.488-43.488-43.488h-161.024c-23.979,0-43.488,19.509-43.488,43.488v305.023c0,23.98 19.509,43.489 43.488,43.489h141.701v40.984c0,11.312 9.203,20.516 20.516,20.516h159.789c11.307,0 20.506-9.199 20.506-20.506v-273.978c0-11.313-9.203-20.516-20.516-20.516zm-106.185,254.5l106.701-176.378v176.378h-106.701zm-11.299-44.488v-149.512h105.284l-117.36,194h-30.734v-1.017c23.666-0.365 42.81-19.719 42.81-43.471zm-228-26.512v-254h172.73l-153.666,254h-19.064zm196.104-254h11.896v254h-165.56l153.664-254zm149.38,90.5c0.284,0 0.516,0.231 0.516,0.516v19.984h-118v-20.5h117.484zm-321.996-138.5h161.023c12.951,0 23.488,10.537 23.488,23.488v4.512h-208v-4.512c0.001-12.951 10.538-23.488 23.489-23.488zm-23.488,328.512v-6.512h208v6.512c0,12.951-10.537,23.488-23.488,23.488h-161.024c-12.951,0-23.488-10.537-23.488-23.488zm185.189,84.472v-19.984h70.405v20.5h-69.89c-0.283,0-0.515-0.231-0.515-0.516zm160.305,.516h-69.899v-20.5h70.405v19.994c0,0.279-0.227,0.506-0.506,0.506z"></path> <path d="m157.753,347.999c-2.63,0-5.21,1.07-7.07,2.93-1.87,1.86-2.93,4.44-2.93,7.07 0,2.63 1.06,5.21 2.93,7.07 1.86,1.86 4.44,2.93 7.07,2.93 2.63,0 5.21-1.07 7.07-2.93 1.86-1.86 2.93-4.44 2.93-7.07 0-2.63-1.07-5.21-2.93-7.07-1.86-1.86-4.44-2.93-7.07-2.93z"></path> </g> </g></svg>