<svg fill="#CC0C5C" width="60" height="60" version="1.1" id="Capa_1" xmlns="http://www.w3.org/2000/svg" xmlns:xlink="http://www.w3.org/1999/xlink" viewBox="0 0 247.039 247.038" xml:space="preserve"><g id="SVGRepo_bgCarrier" stroke-width="0"></g><g id="SVGRepo_tracerCarrier" stroke-linecap="round" stroke-linejoin="round"></g><g id="SVGRepo_iconCarrier"> <g> <g id="Layer_48_1_"> <g> <polygon points="247.039,159.923 247.039,37.701 56.261,37.701 56.261,99.424 70.223,99.424 70.223,51.658 233.079,51.658 233.079,141.922 157.032,141.922 157.032,174.288 207.4,174.288 207.4,167.789 167.583,167.789 167.583,159.923 "></polygon> <path d="M151.867,103.624H19.108v87.534h132.758V103.624z M141.919,181.215H29.051v-67.648h112.868V181.215z"></path> <path d="M87.367,195.23h-3.786H19.103L0,196.185v13.152h170.95v-13.152l-19.108-0.954H87.367z M104.25,203.894H64.467v-2.631 h39.783V203.894z"></path> </g> </g> </g> </g></svg>