<svg fill="#CC0C5C" height="60" width="60" version="1.1" id="Layer_1" xmlns="http://www.w3.org/2000/svg" xmlns:xlink="http://www.w3.org/1999/xlink" viewBox="0 0 512 512" xml:space="preserve"><g id="SVGRepo_bgCarrier" stroke-width="0"></g><g id="SVGRepo_tracerCarrier" stroke-linecap="round" stroke-linejoin="round"></g><g id="SVGRepo_iconCarrier"> <g> <g> <path d="M103.784,309.045c-27.977,0-50.739,22.762-50.739,50.739s22.762,50.739,50.739,50.739 c27.977,0,50.739-22.762,50.739-50.739C154.523,331.806,131.761,309.045,103.784,309.045z M103.784,382.847 c-12.717,0-23.064-10.346-23.064-23.063s10.347-23.064,23.064-23.064s23.063,10.347,23.063,23.064 S116.501,382.847,103.784,382.847z"></path> </g> </g> <g> <g> <path d="M103.784,95.103c-36.579,0-66.337,29.758-66.337,66.337c0,36.579,29.758,66.339,66.337,66.339 c36.579,0,66.337-29.758,66.337-66.337C170.121,124.863,140.363,95.103,103.784,95.103z M103.784,200.103 c-21.319,0-38.662-17.344-38.662-38.662c0-21.317,17.343-38.663,38.662-38.663c21.319,0,38.661,17.344,38.661,38.662 C142.445,182.758,125.102,200.103,103.784,200.103z"></path> </g> </g> <g> <g> <path d="M159.509,264.372c-0.18-0.886-0.443-1.757-0.789-2.588c-0.346-0.844-0.775-1.647-1.273-2.394 c-0.512-0.761-1.079-1.467-1.73-2.103c-0.637-0.637-1.342-1.218-2.103-1.716c-0.747-0.498-1.55-0.927-2.38-1.273 c-0.844-0.346-1.702-0.609-2.588-0.789c-1.785-0.36-3.626-0.36-5.411,0c-0.886,0.18-1.757,0.443-2.588,0.789 s-1.647,0.775-2.394,1.273c-0.761,0.498-1.467,1.079-2.103,1.716s-1.218,1.342-1.716,2.103c-0.498,0.747-0.927,1.55-1.273,2.394 c-0.346,0.83-0.609,1.702-0.789,2.588s-0.277,1.799-0.277,2.698s0.097,1.813,0.277,2.698s0.443,1.757,0.789,2.588 c0.346,0.844,0.775,1.647,1.273,2.394c0.498,0.761,1.079,1.467,1.716,2.103c0.637,0.637,1.342,1.218,2.103,1.716 c0.747,0.498,1.564,0.927,2.394,1.273s1.702,0.623,2.588,0.789c0.886,0.18,1.799,0.277,2.698,0.277 c0.899,0,1.813-0.097,2.712-0.277c0.886-0.166,1.744-0.443,2.588-0.789c0.83-0.346,1.633-0.775,2.38-1.273 c0.761-0.498,1.467-1.079,2.103-1.716c0.65-0.637,1.218-1.342,1.73-2.103c0.498-0.747,0.927-1.55,1.273-2.394 c0.346-0.83,0.609-1.702,0.789-2.588c0.18-0.886,0.263-1.799,0.263-2.698S159.689,265.257,159.509,264.372z"></path> </g> </g> <g> <g> <path d="M498.162,41.513H318.27c-7.643,0-13.838,6.195-13.838,13.838v235.243h-96.865V55.351c0-7.643-6.195-13.838-13.838-13.838 H13.838C6.195,41.513,0,47.709,0,55.351v401.297c0,7.643,6.195,13.838,13.838,13.838H193.73H318.27h179.892 c7.643,0,13.838-6.195,13.838-13.838V55.351C512,47.709,505.805,41.513,498.162,41.513z M179.892,304.432v138.378H27.676V280.908 h76.75c7.643,0,13.838-6.195,13.838-13.838c0-7.643-6.195-13.838-13.838-13.838h-76.75V69.189h152.216V304.432z M304.432,442.811 h-96.865V318.27h96.865V442.811z M484.324,442.811H332.108V304.432v-23.524h76.75c7.643,0,13.838-6.195,13.838-13.838 c0-7.643-6.195-13.838-13.838-13.838h-76.75V69.189h152.216V442.811z"></path> </g> </g> <g> <g> <path d="M408.216,309.045c-27.977,0-50.739,22.762-50.739,50.739s22.762,50.739,50.739,50.739 c27.977,0,50.739-22.762,50.739-50.739C458.955,331.806,436.194,309.045,408.216,309.045z M408.216,382.847 c-12.717,0-23.064-10.346-23.064-23.063s10.347-23.064,23.064-23.064s23.063,10.347,23.063,23.064 S420.933,382.847,408.216,382.847z"></path> </g> </g> <g> <g> <path d="M408.216,95.103c-36.579,0-66.337,29.758-66.337,66.337c0,36.579,29.758,66.339,66.337,66.339 c36.579,0,66.337-29.758,66.337-66.337C474.553,124.863,444.795,95.103,408.216,95.103z M408.216,200.103 c-21.319,0-38.662-17.344-38.662-38.662c0-21.317,17.343-38.663,38.662-38.663c21.319,0,38.661,17.344,38.661,38.662 C446.878,182.758,429.535,200.103,408.216,200.103z"></path> </g> </g> <g> <g> <path d="M463.941,264.372c-0.18-0.886-0.443-1.757-0.789-2.588c-0.346-0.844-0.775-1.647-1.273-2.394 c-0.512-0.761-1.079-1.467-1.73-2.103c-2.574-2.574-6.13-4.055-9.783-4.055c-3.639,0-7.21,1.481-9.783,4.055 c-0.637,0.637-1.218,1.342-1.716,2.103c-0.498,0.747-0.927,1.55-1.273,2.394c-0.346,0.83-0.609,1.702-0.789,2.588 c-0.18,0.886-0.277,1.799-0.277,2.698c0,3.639,1.481,7.21,4.055,9.783c0.637,0.637,1.356,1.218,2.103,1.716 s1.564,0.927,2.394,1.273c0.83,0.346,1.702,0.623,2.588,0.789c0.899,0.18,1.799,0.277,2.698,0.277 c3.653,0,7.223-1.481,9.783-4.055c2.588-2.574,4.054-6.144,4.054-9.783C464.204,266.171,464.121,265.257,463.941,264.372z"></path> </g> </g> </g></svg>