<svg width="2024" height="905" viewBox="0 0 2024 905" fill="none" xmlns="http://www.w3.org/2000/svg">
<path d="M444.009 106.658C421.826 112.883 400.228 119.937 394.108 143.176C386.676 171.394 421.826 192.995 421.826 192.995" stroke="currentColor" stroke-width="11"/>
<path d="M449.693 302.17C462.079 293.982 477.56 288.523 483.752 263.959C489.945 239.395 462.079 217.561 462.079 217.561" stroke="currentColor" stroke-width="11"/>
<path d="M369.189 356.756C322.745 419.531 340.556 506.122 350.612 553.268" stroke="currentColor" stroke-width="11"/>
<path d="M359.901 572.372C354.021 626.927 348.161 700.651 338.227 733.403C328.292 766.155 316.553 796.177 297.975 818.012C287.612 830.192 268.5 865.262 228.5 884.5C213.5 891.714 188 903 128 898C68.0001 893 5.50001 832 5.5 757C5.49999 682 46.5002 629.243 91.0002 615C135.5 600.756 165 631 165 631" stroke="currentColor" stroke-width="11"/>
<path d="M433.706 113.011C405.839 224.914 268.935 899.085 268.935 899.085C268.935 899.085 455.38 244.019 504.92 113.011C554.461 -17.9966 491.867 3.86968 491.867 3.86968C491.867 3.86968 461.572 1.10721 433.706 113.011Z" fill="currentColor" stroke="currentColor" stroke-width="5"/>
<path d="M468.434 67.9501C463.456 81.114 445.424 133.513 461.574 136.213C477.723 138.913 489.489 97.9727 493.205 81.5967C496.92 65.2207 498.628 51.5741 489.44 48.8743C480.252 46.1746 473.412 54.7861 468.434 67.9501Z" fill="#A59189" stroke="currentColor" stroke-width="5"/>
<path d="M492.536 93.9058C480.151 96.6351 470.862 99.3644 455.381 104.823" stroke="currentColor" stroke-width="11"/>
<path d="M468.434 67.9501C463.456 81.114 445.424 133.513 461.574 136.213C477.723 138.913 489.489 97.9727 493.205 81.5967C496.92 65.2207 498.628 51.5741 489.44 48.8743C480.252 46.1746 473.412 54.7861 468.434 67.9501Z" stroke="currentColor" stroke-width="7"/>
<path d="M458.982 296.711C443.501 307.629 387.768 324.005 366.094 362.215" stroke="currentColor" stroke-width="11"/>
<path d="M621.5 163.499C635 210.499 662 233.499 722 223.999C782 214.499 767.5 194.611 822.499 187.499C880.498 179.999 915.999 223.999 911.499 255.999C906.999 287.999 884.999 306.499 849.499 306.499C813.999 306.499 784.056 266.174 800.499 229.999C816.941 193.825 858.499 189.66 871.499 187.499C967.195 171.591 1007.96 171.037 1054 210.499C1100.04 249.962 1116.5 270.999 1179 270.999C1241.5 270.999 1326.7 234.178 1377.93 217.288C1442.5 195.999 1473.06 187.691 1535.78 187.691C1608.13 187.691 1642.5 204.499 1673.9 233.731" stroke="currentColor" stroke-width="7"/>
<path d="M622 165.5C608 114.5 552 94.7013 534.5 92C517 89.2987 508.828 89.6345 482.52 96.2116" stroke="currentColor" stroke-width="8"/>
<path d="M2018 470.499C2046 299.499 1862.1 382.27 1664.5 226" stroke="currentColor" stroke-width="6"/>
<mask id="path-13-outside-1_726_220" maskUnits="userSpaceOnUse" x="482.438" y="278.557" width="1533" height="413" fill="black">
<rect fill="currentColor" x="482.438" y="278.557" width="1533" height="413"/>
<path d="M695.874 686.337C676.218 686.337 661.35 682.305 651.27 674.241C647.742 670.713 645.978 661.893 645.978 647.781C645.978 633.165 646.482 613.761 647.49 589.569C634.386 622.329 621.282 646.773 608.178 662.901C595.578 678.525 579.198 686.337 559.038 686.337C538.878 686.337 521.238 677.013 506.118 658.365C490.998 639.213 483.438 609.477 483.438 569.157C483.438 528.333 494.778 492.297 517.458 461.049C540.642 429.801 570.882 414.177 608.178 414.177C624.306 414.177 642.45 424.761 662.61 445.929C666.642 440.385 673.698 433.833 683.778 426.273C694.362 418.209 703.182 414.177 710.238 414.177C717.798 414.177 721.578 423.753 721.578 442.905C721.578 447.945 720.066 457.773 717.042 472.389C714.522 487.005 711.498 497.589 707.97 504.141C703.434 515.733 701.166 556.809 701.166 627.369C701.166 640.977 702.678 647.781 705.702 647.781C714.27 647.277 726.114 636.693 741.234 616.029C756.354 594.861 771.222 567.897 785.838 535.137C800.958 502.377 810.03 485.997 813.054 485.997C816.582 485.997 818.346 488.013 818.346 492.045C818.346 506.157 811.038 528.585 796.423 559.329C756.606 644.001 723.09 686.337 695.874 686.337ZM603.642 444.417C589.53 444.417 574.41 455.001 558.282 476.169C542.658 496.833 534.846 521.277 534.846 549.501C534.846 577.725 538.878 600.909 546.942 619.053C555.51 637.197 566.598 646.269 580.206 646.269C596.838 646.269 621.282 604.689 653.538 521.529C654.042 517.497 654.546 510.693 655.05 501.117C656.058 491.037 656.814 483.477 657.318 478.437C652.782 470.373 644.718 462.813 633.126 455.757C622.038 448.197 612.21 444.417 603.642 444.417ZM884.733 451.221L886.245 439.881C886.245 430.809 880.953 426.273 870.369 426.273C860.289 426.273 850.461 433.077 840.885 446.685C831.309 459.789 826.521 470.625 826.521 479.193C826.521 487.761 827.025 494.565 828.033 499.605C829.041 504.645 830.049 508.929 831.057 512.457C832.569 515.481 834.837 519.261 837.861 523.797C840.885 528.333 843.153 531.609 844.665 533.625L852.981 544.209C856.509 549.249 859.029 552.525 860.541 554.037C886.749 532.365 917.997 508.173 954.285 481.461C956.301 479.949 958.569 479.193 961.089 479.193C966.129 479.193 968.649 481.965 968.649 487.509C968.649 493.053 966.381 497.337 961.845 500.361C929.589 521.025 899.097 543.453 870.369 567.645C881.457 583.773 887.001 601.413 887.001 620.565C887.001 639.717 879.693 656.097 865.077 669.705C850.461 683.313 831.813 690.117 809.133 690.117C786.453 690.117 775.113 679.281 775.113 657.609C775.113 641.985 791.745 618.045 825.009 585.789C822.489 582.765 817.953 577.977 811.401 571.425C804.849 564.369 799.809 558.825 796.281 554.793C793.257 550.761 789.477 545.469 784.941 538.917C776.877 526.317 772.845 512.709 772.845 498.093C772.845 468.357 782.421 444.417 801.573 426.273C820.725 407.625 841.137 398.301 862.809 398.301C876.417 398.301 887.001 402.081 894.561 409.641C902.121 416.697 905.901 424.005 905.901 431.565C905.901 448.701 901.869 457.269 893.805 457.269C887.757 457.269 884.733 455.253 884.733 451.221ZM836.349 600.153C816.189 620.313 806.109 636.693 806.109 649.293C806.109 661.389 812.409 667.437 825.009 667.437C832.569 667.437 838.869 664.413 843.909 658.365C854.997 643.245 852.477 623.841 836.349 600.153ZM992.847 641.733L993.603 665.169C993.603 679.281 989.571 686.337 981.507 686.337C969.411 686.337 957.819 684.825 946.731 681.801C935.643 678.273 930.099 673.737 930.099 668.193C930.099 662.145 931.359 642.237 933.879 608.469C936.903 574.197 938.415 548.493 938.415 531.357V486.753C938.415 462.561 940.935 447.945 945.975 442.905C951.015 437.865 959.835 430.557 972.435 420.981C985.539 411.405 994.863 406.617 1000.41 406.617C1006.45 406.617 1010.23 407.625 1011.75 409.641C1013.26 411.657 1014.01 415.437 1014.01 420.981C1014.01 447.693 1008.97 472.893 998.895 496.581C996.375 525.309 995.115 545.217 995.115 556.305C1021.83 506.409 1040.47 473.649 1051.06 458.025C1069.71 428.793 1086.59 414.177 1101.71 414.177C1111.29 414.177 1120.11 417.957 1128.17 425.517C1136.74 433.077 1141.02 442.401 1141.02 453.489C1141.02 464.577 1140.77 475.161 1140.27 485.241C1140.27 494.817 1140.01 502.377 1139.51 507.921C1139.01 513.465 1138.75 516.993 1138.75 518.505C1140.77 514.473 1149.34 503.133 1164.46 484.485C1179.58 465.837 1189.66 453.741 1194.7 448.197C1200.24 442.653 1206.04 437.109 1212.09 431.565C1223.68 419.973 1234.01 414.177 1243.08 414.177C1252.66 414.177 1261.48 417.705 1269.54 424.761C1278.11 431.817 1282.39 440.637 1282.39 451.221C1282.39 473.397 1279.87 506.157 1274.83 549.501C1270.3 592.341 1268.03 619.557 1268.03 631.149C1268.03 642.237 1269.54 647.781 1272.57 647.781C1281.13 647.277 1292.98 636.693 1308.1 616.029C1323.22 594.861 1338.09 567.897 1352.7 535.137C1367.82 502.377 1376.89 485.997 1379.92 485.997C1383.45 485.997 1385.21 488.013 1385.21 492.045C1385.21 506.157 1377.9 528.585 1363.29 559.329C1323.47 644.001 1289.95 686.337 1262.74 686.337C1245.6 686.337 1231.99 682.305 1221.91 674.241C1218.39 670.713 1216.62 661.641 1216.62 647.025C1216.62 631.905 1217.88 607.713 1220.4 574.449C1223.43 540.681 1224.94 515.481 1224.94 498.849C1224.94 482.217 1222.17 473.901 1216.62 473.901C1210.07 473.901 1195.71 484.989 1173.53 507.165C1151.86 529.341 1140.27 544.965 1138.75 554.037C1135.73 571.173 1134.22 608.217 1134.22 665.169C1134.22 679.281 1130.44 686.337 1122.88 686.337C1111.29 686.337 1100.2 684.825 1089.61 681.801C1079.53 678.273 1074.49 673.737 1074.49 668.193C1074.49 662.145 1076.01 637.197 1079.03 593.349C1082.05 549.501 1083.57 518.757 1083.57 501.117C1083.57 482.973 1080.54 473.901 1074.49 473.901C1068.95 473.901 1055.09 491.289 1032.91 526.065C1010.74 560.337 998.391 584.277 995.871 597.885C993.855 611.493 992.847 626.109 992.847 641.733ZM1367.82 312.873C1367.82 303.801 1372.6 295.989 1382.18 289.437C1391.76 282.885 1400.32 279.609 1407.88 279.609C1421.49 279.609 1428.3 287.421 1428.3 303.045C1428.3 318.669 1424.26 332.277 1416.2 343.869C1408.14 354.957 1396.8 360.501 1382.18 360.501C1372.6 360.501 1367.82 344.625 1367.82 312.873ZM1389.74 686.337C1370.08 686.337 1355.22 682.305 1345.14 674.241C1341.61 670.713 1339.84 658.113 1339.84 636.441C1339.84 614.769 1341.36 578.733 1344.38 528.333C1347.91 477.429 1350.93 449.961 1353.45 445.929C1355.97 441.897 1363.78 434.337 1376.89 423.249C1389.99 412.161 1400.07 406.617 1407.13 406.617C1414.69 406.617 1418.47 416.193 1418.47 435.345C1418.47 440.385 1416.96 450.213 1413.93 464.829C1411.41 479.445 1408.39 490.029 1404.86 496.581C1398.31 513.213 1395.03 556.809 1395.03 627.369C1395.03 640.977 1396.54 647.781 1399.57 647.781C1408.14 647.277 1419.98 636.693 1435.1 616.029C1450.22 594.861 1465.09 567.897 1479.7 535.137C1494.82 502.377 1503.9 485.997 1506.92 485.997C1510.45 485.997 1512.21 488.013 1512.21 492.045C1512.21 506.157 1504.9 528.585 1490.29 559.329C1450.47 644.001 1416.96 686.337 1389.74 686.337ZM1530.97 641.733L1531.72 665.169C1531.72 679.281 1527.69 686.337 1519.63 686.337C1507.53 686.337 1495.94 684.825 1484.85 681.801C1473.76 678.273 1468.22 673.737 1468.22 668.193C1468.22 662.145 1469.48 642.237 1472 608.469C1475.02 574.197 1476.53 548.493 1476.53 531.357V486.753C1476.53 462.561 1479.05 447.945 1484.09 442.905C1489.13 437.865 1497.95 430.557 1510.55 420.981C1523.66 411.405 1532.98 406.617 1538.53 406.617C1544.57 406.617 1548.35 407.625 1549.87 409.641C1551.38 411.657 1552.13 415.437 1552.13 420.981C1552.13 447.693 1547.09 472.893 1537.01 496.581C1534.49 525.309 1533.23 545.217 1533.23 556.305C1535.25 553.281 1545.83 536.145 1564.99 504.897C1584.14 473.649 1600.27 450.717 1613.37 436.101C1626.98 421.485 1639.07 414.177 1649.66 414.177C1660.24 414.177 1669.57 417.705 1677.63 424.761C1686.2 431.817 1690.48 440.637 1690.48 451.221C1690.48 473.397 1687.96 506.157 1682.92 549.501C1678.39 592.341 1676.12 619.557 1676.12 631.149C1676.12 642.237 1677.63 647.781 1680.65 647.781C1689.22 647.277 1701.07 636.693 1716.19 616.029C1731.31 594.861 1746.17 567.897 1760.79 535.137C1775.91 502.377 1784.98 485.997 1788.01 485.997C1791.53 485.997 1793.3 488.013 1793.3 492.045C1793.3 506.157 1785.99 528.585 1771.37 559.329C1731.56 644.001 1698.04 686.337 1670.83 686.337C1651.17 686.337 1636.3 682.305 1626.22 674.241C1622.69 670.713 1620.93 661.641 1620.93 647.025C1620.93 631.905 1622.19 607.713 1624.71 574.449C1627.73 540.681 1629.25 515.481 1629.25 498.849C1629.25 482.217 1626.22 473.901 1620.17 473.901C1614.63 473.901 1599.51 491.289 1574.81 526.065C1550.12 560.337 1537.01 582.261 1535.5 591.837C1532.48 609.477 1530.97 626.109 1530.97 641.733ZM1844.78 686.337C1816.55 686.337 1794.12 675.753 1777.49 654.585C1760.86 632.913 1752.54 608.469 1752.54 581.253C1752.54 526.317 1764.14 484.737 1787.32 456.513C1810.5 428.289 1840.49 414.177 1877.28 414.177C1894.42 414.177 1908.53 418.965 1919.62 428.541C1930.71 437.613 1936.25 450.213 1936.25 466.341C1936.25 496.581 1923.4 522.033 1897.7 542.697C1872.5 562.857 1841.5 573.441 1804.71 574.449C1806.72 594.105 1813.28 611.241 1824.36 625.857C1835.96 639.969 1849.31 647.025 1864.43 647.025C1879.55 647.025 1893.16 643.497 1905.26 636.441C1917.35 629.385 1928.44 619.305 1938.52 606.201C1959.69 578.481 1977.83 546.981 1992.95 511.701C1996.98 502.629 2000.01 496.077 2002.02 492.045C2004.54 488.013 2007.06 485.997 2009.58 485.997C2012.61 485.997 2014.12 488.013 2014.12 492.045C2014.12 517.245 1998.75 555.045 1968 605.445C1934.74 659.373 1893.66 686.337 1844.78 686.337ZM1804.71 556.305C1834.44 551.265 1856.12 541.689 1869.72 527.577C1883.84 513.465 1890.89 495.069 1890.89 472.389C1890.89 449.709 1883.58 438.369 1868.97 438.369C1851.33 438.369 1836.46 450.717 1824.36 475.413C1812.27 499.605 1805.72 526.569 1804.71 556.305Z"/>
</mask>
<path d="M695.874 686.337C676.218 686.337 661.35 682.305 651.27 674.241C647.742 670.713 645.978 661.893 645.978 647.781C645.978 633.165 646.482 613.761 647.49 589.569C634.386 622.329 621.282 646.773 608.178 662.901C595.578 678.525 579.198 686.337 559.038 686.337C538.878 686.337 521.238 677.013 506.118 658.365C490.998 639.213 483.438 609.477 483.438 569.157C483.438 528.333 494.778 492.297 517.458 461.049C540.642 429.801 570.882 414.177 608.178 414.177C624.306 414.177 642.45 424.761 662.61 445.929C666.642 440.385 673.698 433.833 683.778 426.273C694.362 418.209 703.182 414.177 710.238 414.177C717.798 414.177 721.578 423.753 721.578 442.905C721.578 447.945 720.066 457.773 717.042 472.389C714.522 487.005 711.498 497.589 707.97 504.141C703.434 515.733 701.166 556.809 701.166 627.369C701.166 640.977 702.678 647.781 705.702 647.781C714.27 647.277 726.114 636.693 741.234 616.029C756.354 594.861 771.222 567.897 785.838 535.137C800.958 502.377 810.03 485.997 813.054 485.997C816.582 485.997 818.346 488.013 818.346 492.045C818.346 506.157 811.038 528.585 796.423 559.329C756.606 644.001 723.09 686.337 695.874 686.337ZM603.642 444.417C589.53 444.417 574.41 455.001 558.282 476.169C542.658 496.833 534.846 521.277 534.846 549.501C534.846 577.725 538.878 600.909 546.942 619.053C555.51 637.197 566.598 646.269 580.206 646.269C596.838 646.269 621.282 604.689 653.538 521.529C654.042 517.497 654.546 510.693 655.05 501.117C656.058 491.037 656.814 483.477 657.318 478.437C652.782 470.373 644.718 462.813 633.126 455.757C622.038 448.197 612.21 444.417 603.642 444.417ZM884.733 451.221L886.245 439.881C886.245 430.809 880.953 426.273 870.369 426.273C860.289 426.273 850.461 433.077 840.885 446.685C831.309 459.789 826.521 470.625 826.521 479.193C826.521 487.761 827.025 494.565 828.033 499.605C829.041 504.645 830.049 508.929 831.057 512.457C832.569 515.481 834.837 519.261 837.861 523.797C840.885 528.333 843.153 531.609 844.665 533.625L852.981 544.209C856.509 549.249 859.029 552.525 860.541 554.037C886.749 532.365 917.997 508.173 954.285 481.461C956.301 479.949 958.569 479.193 961.089 479.193C966.129 479.193 968.649 481.965 968.649 487.509C968.649 493.053 966.381 497.337 961.845 500.361C929.589 521.025 899.097 543.453 870.369 567.645C881.457 583.773 887.001 601.413 887.001 620.565C887.001 639.717 879.693 656.097 865.077 669.705C850.461 683.313 831.813 690.117 809.133 690.117C786.453 690.117 775.113 679.281 775.113 657.609C775.113 641.985 791.745 618.045 825.009 585.789C822.489 582.765 817.953 577.977 811.401 571.425C804.849 564.369 799.809 558.825 796.281 554.793C793.257 550.761 789.477 545.469 784.941 538.917C776.877 526.317 772.845 512.709 772.845 498.093C772.845 468.357 782.421 444.417 801.573 426.273C820.725 407.625 841.137 398.301 862.809 398.301C876.417 398.301 887.001 402.081 894.561 409.641C902.121 416.697 905.901 424.005 905.901 431.565C905.901 448.701 901.869 457.269 893.805 457.269C887.757 457.269 884.733 455.253 884.733 451.221ZM836.349 600.153C816.189 620.313 806.109 636.693 806.109 649.293C806.109 661.389 812.409 667.437 825.009 667.437C832.569 667.437 838.869 664.413 843.909 658.365C854.997 643.245 852.477 623.841 836.349 600.153ZM992.847 641.733L993.603 665.169C993.603 679.281 989.571 686.337 981.507 686.337C969.411 686.337 957.819 684.825 946.731 681.801C935.643 678.273 930.099 673.737 930.099 668.193C930.099 662.145 931.359 642.237 933.879 608.469C936.903 574.197 938.415 548.493 938.415 531.357V486.753C938.415 462.561 940.935 447.945 945.975 442.905C951.015 437.865 959.835 430.557 972.435 420.981C985.539 411.405 994.863 406.617 1000.41 406.617C1006.45 406.617 1010.23 407.625 1011.75 409.641C1013.26 411.657 1014.01 415.437 1014.01 420.981C1014.01 447.693 1008.97 472.893 998.895 496.581C996.375 525.309 995.115 545.217 995.115 556.305C1021.83 506.409 1040.47 473.649 1051.06 458.025C1069.71 428.793 1086.59 414.177 1101.71 414.177C1111.29 414.177 1120.11 417.957 1128.17 425.517C1136.74 433.077 1141.02 442.401 1141.02 453.489C1141.02 464.577 1140.77 475.161 1140.27 485.241C1140.27 494.817 1140.01 502.377 1139.51 507.921C1139.01 513.465 1138.75 516.993 1138.75 518.505C1140.77 514.473 1149.34 503.133 1164.46 484.485C1179.58 465.837 1189.66 453.741 1194.7 448.197C1200.24 442.653 1206.04 437.109 1212.09 431.565C1223.68 419.973 1234.01 414.177 1243.08 414.177C1252.66 414.177 1261.48 417.705 1269.54 424.761C1278.11 431.817 1282.39 440.637 1282.39 451.221C1282.39 473.397 1279.87 506.157 1274.83 549.501C1270.3 592.341 1268.03 619.557 1268.03 631.149C1268.03 642.237 1269.54 647.781 1272.57 647.781C1281.13 647.277 1292.98 636.693 1308.1 616.029C1323.22 594.861 1338.09 567.897 1352.7 535.137C1367.82 502.377 1376.89 485.997 1379.92 485.997C1383.45 485.997 1385.21 488.013 1385.21 492.045C1385.21 506.157 1377.9 528.585 1363.29 559.329C1323.47 644.001 1289.95 686.337 1262.74 686.337C1245.6 686.337 1231.99 682.305 1221.91 674.241C1218.39 670.713 1216.62 661.641 1216.62 647.025C1216.62 631.905 1217.88 607.713 1220.4 574.449C1223.43 540.681 1224.94 515.481 1224.94 498.849C1224.94 482.217 1222.17 473.901 1216.62 473.901C1210.07 473.901 1195.71 484.989 1173.53 507.165C1151.86 529.341 1140.27 544.965 1138.75 554.037C1135.73 571.173 1134.22 608.217 1134.22 665.169C1134.22 679.281 1130.44 686.337 1122.88 686.337C1111.29 686.337 1100.2 684.825 1089.61 681.801C1079.53 678.273 1074.49 673.737 1074.49 668.193C1074.49 662.145 1076.01 637.197 1079.03 593.349C1082.05 549.501 1083.57 518.757 1083.57 501.117C1083.57 482.973 1080.54 473.901 1074.49 473.901C1068.95 473.901 1055.09 491.289 1032.91 526.065C1010.74 560.337 998.391 584.277 995.871 597.885C993.855 611.493 992.847 626.109 992.847 641.733ZM1367.82 312.873C1367.82 303.801 1372.6 295.989 1382.18 289.437C1391.76 282.885 1400.32 279.609 1407.88 279.609C1421.49 279.609 1428.3 287.421 1428.3 303.045C1428.3 318.669 1424.26 332.277 1416.2 343.869C1408.14 354.957 1396.8 360.501 1382.18 360.501C1372.6 360.501 1367.82 344.625 1367.82 312.873ZM1389.74 686.337C1370.08 686.337 1355.22 682.305 1345.14 674.241C1341.61 670.713 1339.84 658.113 1339.84 636.441C1339.84 614.769 1341.36 578.733 1344.38 528.333C1347.91 477.429 1350.93 449.961 1353.45 445.929C1355.97 441.897 1363.78 434.337 1376.89 423.249C1389.99 412.161 1400.07 406.617 1407.13 406.617C1414.69 406.617 1418.47 416.193 1418.47 435.345C1418.47 440.385 1416.96 450.213 1413.93 464.829C1411.41 479.445 1408.39 490.029 1404.86 496.581C1398.31 513.213 1395.03 556.809 1395.03 627.369C1395.03 640.977 1396.54 647.781 1399.57 647.781C1408.14 647.277 1419.98 636.693 1435.1 616.029C1450.22 594.861 1465.09 567.897 1479.7 535.137C1494.82 502.377 1503.9 485.997 1506.92 485.997C1510.45 485.997 1512.21 488.013 1512.21 492.045C1512.21 506.157 1504.9 528.585 1490.29 559.329C1450.47 644.001 1416.96 686.337 1389.74 686.337ZM1530.97 641.733L1531.72 665.169C1531.72 679.281 1527.69 686.337 1519.63 686.337C1507.53 686.337 1495.94 684.825 1484.85 681.801C1473.76 678.273 1468.22 673.737 1468.22 668.193C1468.22 662.145 1469.48 642.237 1472 608.469C1475.02 574.197 1476.53 548.493 1476.53 531.357V486.753C1476.53 462.561 1479.05 447.945 1484.09 442.905C1489.13 437.865 1497.95 430.557 1510.55 420.981C1523.66 411.405 1532.98 406.617 1538.53 406.617C1544.57 406.617 1548.35 407.625 1549.87 409.641C1551.38 411.657 1552.13 415.437 1552.13 420.981C1552.13 447.693 1547.09 472.893 1537.01 496.581C1534.49 525.309 1533.23 545.217 1533.23 556.305C1535.25 553.281 1545.83 536.145 1564.99 504.897C1584.14 473.649 1600.27 450.717 1613.37 436.101C1626.98 421.485 1639.07 414.177 1649.66 414.177C1660.24 414.177 1669.57 417.705 1677.63 424.761C1686.2 431.817 1690.48 440.637 1690.48 451.221C1690.48 473.397 1687.96 506.157 1682.92 549.501C1678.39 592.341 1676.12 619.557 1676.12 631.149C1676.12 642.237 1677.63 647.781 1680.65 647.781C1689.22 647.277 1701.07 636.693 1716.19 616.029C1731.31 594.861 1746.17 567.897 1760.79 535.137C1775.91 502.377 1784.98 485.997 1788.01 485.997C1791.53 485.997 1793.3 488.013 1793.3 492.045C1793.3 506.157 1785.99 528.585 1771.37 559.329C1731.56 644.001 1698.04 686.337 1670.83 686.337C1651.17 686.337 1636.3 682.305 1626.22 674.241C1622.69 670.713 1620.93 661.641 1620.93 647.025C1620.93 631.905 1622.19 607.713 1624.71 574.449C1627.73 540.681 1629.25 515.481 1629.25 498.849C1629.25 482.217 1626.22 473.901 1620.17 473.901C1614.63 473.901 1599.51 491.289 1574.81 526.065C1550.12 560.337 1537.01 582.261 1535.5 591.837C1532.48 609.477 1530.97 626.109 1530.97 641.733ZM1844.78 686.337C1816.55 686.337 1794.12 675.753 1777.49 654.585C1760.86 632.913 1752.54 608.469 1752.54 581.253C1752.54 526.317 1764.14 484.737 1787.32 456.513C1810.5 428.289 1840.49 414.177 1877.28 414.177C1894.42 414.177 1908.53 418.965 1919.62 428.541C1930.71 437.613 1936.25 450.213 1936.25 466.341C1936.25 496.581 1923.4 522.033 1897.7 542.697C1872.5 562.857 1841.5 573.441 1804.71 574.449C1806.72 594.105 1813.28 611.241 1824.36 625.857C1835.96 639.969 1849.31 647.025 1864.43 647.025C1879.55 647.025 1893.16 643.497 1905.26 636.441C1917.35 629.385 1928.44 619.305 1938.52 606.201C1959.69 578.481 1977.83 546.981 1992.95 511.701C1996.98 502.629 2000.01 496.077 2002.02 492.045C2004.54 488.013 2007.06 485.997 2009.58 485.997C2012.61 485.997 2014.12 488.013 2014.12 492.045C2014.12 517.245 1998.75 555.045 1968 605.445C1934.74 659.373 1893.66 686.337 1844.78 686.337ZM1804.71 556.305C1834.44 551.265 1856.12 541.689 1869.72 527.577C1883.84 513.465 1890.89 495.069 1890.89 472.389C1890.89 449.709 1883.58 438.369 1868.97 438.369C1851.33 438.369 1836.46 450.717 1824.36 475.413C1812.27 499.605 1805.72 526.569 1804.71 556.305Z" fill="currentColor"/>
<path d="M651.27 674.241L650.563 674.948L650.603 674.987L650.646 675.022L651.27 674.241ZM647.49 589.569L648.49 589.61L646.562 589.197L647.49 589.569ZM608.178 662.901L607.402 662.27L607.4 662.273L608.178 662.901ZM506.118 658.365L505.334 658.984L505.342 658.994L506.118 658.365ZM517.458 461.049L516.655 460.453L516.649 460.461L517.458 461.049ZM662.61 445.929L661.886 446.618L662.714 447.487L663.419 446.517L662.61 445.929ZM683.778 426.273L684.379 427.073L684.385 427.068L683.778 426.273ZM717.042 472.389L716.063 472.186L716.06 472.202L716.057 472.219L717.042 472.389ZM707.97 504.141L707.09 503.667L707.061 503.72L707.039 503.776L707.97 504.141ZM705.702 647.781V648.781H705.732L705.761 648.779L705.702 647.781ZM741.234 616.029L742.042 616.619L742.048 616.61L741.234 616.029ZM785.838 535.137L784.93 534.718L784.925 534.729L785.838 535.137ZM796.423 559.329L795.519 558.899L795.518 558.903L796.423 559.329ZM558.282 476.169L557.487 475.563L557.485 475.566L558.282 476.169ZM546.942 619.053L546.029 619.459L546.033 619.469L546.038 619.48L546.942 619.053ZM653.538 521.529L654.471 521.89L654.515 521.775L654.531 521.653L653.538 521.529ZM655.05 501.117L654.055 501.017L654.053 501.041L654.052 501.064L655.05 501.117ZM657.318 478.437L658.314 478.536L658.345 478.222L658.19 477.946L657.318 478.437ZM633.126 455.757L632.563 456.583L632.584 456.597L632.607 456.611L633.126 455.757ZM695.874 686.337V685.337C676.333 685.337 661.726 681.325 651.895 673.46L651.27 674.241L650.646 675.022C660.975 683.285 676.104 687.337 695.874 687.337V686.337ZM651.27 674.241L651.978 673.534C650.426 671.982 649.152 669.135 648.282 664.784C647.418 660.464 646.978 654.803 646.978 647.781H645.978H644.978C644.978 654.87 645.421 660.676 646.321 665.176C647.215 669.644 648.587 672.971 650.563 674.948L651.27 674.241ZM645.978 647.781H646.978C646.978 633.185 647.482 613.796 648.49 589.61L647.49 589.569L646.491 589.527C645.483 613.725 644.978 633.145 644.978 647.781H645.978ZM647.49 589.569L646.562 589.197C633.473 621.919 620.414 646.256 607.402 662.27L608.178 662.901L608.955 663.531C622.151 647.289 635.3 622.738 648.419 589.94L647.49 589.569ZM608.178 662.901L607.4 662.273C594.991 677.66 578.898 685.337 559.038 685.337V686.337V687.337C579.499 687.337 596.166 679.389 608.957 663.528L608.178 662.901ZM559.038 686.337V685.337C539.239 685.337 521.866 676.198 506.895 657.735L506.118 658.365L505.342 658.994C520.611 677.827 538.518 687.337 559.038 687.337V686.337ZM506.118 658.365L506.903 657.745C491.988 638.852 484.438 609.387 484.438 569.157H483.438H482.438C482.438 609.567 490.009 639.573 505.334 658.984L506.118 658.365ZM483.438 569.157H484.438C484.438 528.531 495.719 492.703 518.268 461.636L517.458 461.049L516.649 460.461C493.838 491.89 482.438 528.134 482.438 569.157H483.438ZM517.458 461.049L518.262 461.644C541.267 430.638 571.215 415.177 608.178 415.177V414.177V413.177C570.55 413.177 540.018 428.963 516.655 460.453L517.458 461.049ZM608.178 414.177V415.177C623.88 415.177 641.774 425.501 661.886 446.618L662.61 445.929L663.335 445.239C643.126 424.02 624.733 413.177 608.178 413.177V414.177ZM662.61 445.929L663.419 446.517C667.363 441.095 674.323 434.614 684.378 427.073L683.778 426.273L683.178 425.473C673.074 433.051 665.922 439.675 661.802 445.34L662.61 445.929ZM683.778 426.273L684.385 427.068C694.927 419.035 703.524 415.177 710.238 415.177V414.177V413.177C702.841 413.177 693.798 417.382 683.172 425.477L683.778 426.273ZM710.238 414.177V415.177C711.897 415.177 713.321 415.695 714.555 416.736C715.806 417.793 716.907 419.429 717.813 421.726C719.633 426.336 720.578 433.365 720.578 442.905H721.578H722.578C722.578 433.292 721.634 425.958 719.674 420.991C718.69 418.5 717.428 416.545 715.845 415.208C714.243 413.856 712.36 413.177 710.238 413.177V414.177ZM721.578 442.905H720.578C720.578 447.826 719.091 457.554 716.063 472.186L717.042 472.389L718.022 472.591C721.042 457.991 722.578 448.064 722.578 442.905H721.578ZM717.042 472.389L716.057 472.219C713.541 486.812 710.538 497.263 707.09 503.667L707.97 504.141L708.851 504.615C712.459 497.914 715.504 487.197 718.028 472.559L717.042 472.389ZM707.97 504.141L707.039 503.776C705.858 506.796 704.854 511.64 704.002 518.235C703.147 524.852 702.437 533.305 701.869 543.587C700.734 564.151 700.166 592.081 700.166 627.369H701.166H702.166C702.166 592.096 702.733 564.208 703.866 543.697C704.432 533.441 705.139 525.041 705.985 518.491C706.835 511.919 707.815 507.282 708.902 504.505L707.97 504.141ZM701.166 627.369H700.166C700.166 634.19 700.544 639.382 701.324 642.895C701.713 644.643 702.219 646.059 702.886 647.06C703.566 648.08 704.5 648.781 705.702 648.781V647.781V646.781C705.393 646.781 705.004 646.63 704.55 645.95C704.083 645.25 703.644 644.114 703.277 642.461C702.545 639.169 702.166 634.155 702.166 627.369H701.166ZM705.702 647.781L705.761 648.779C710.395 648.506 715.713 645.541 721.678 640.21C727.674 634.852 734.462 626.978 742.042 616.619L741.234 616.029L740.427 615.438C732.887 625.743 726.193 633.493 720.345 638.719C714.466 643.972 709.578 646.551 705.644 646.782L705.702 647.781ZM741.234 616.029L742.048 616.61C757.219 595.371 772.118 568.344 786.752 535.544L785.838 535.137L784.925 534.729C770.327 567.449 755.49 594.35 740.421 615.447L741.234 616.029ZM785.838 535.137L786.746 535.556C794.304 519.182 800.339 506.923 804.857 498.766C807.119 494.683 808.984 491.657 810.457 489.662C811.196 488.662 811.812 487.954 812.307 487.507C812.85 487.017 813.077 486.997 813.054 486.997V485.997V484.997C812.276 484.997 811.558 485.489 810.967 486.022C810.328 486.599 809.621 487.427 808.848 488.474C807.297 490.574 805.382 493.69 803.108 497.797C798.554 506.02 792.493 518.332 784.931 534.718L785.838 535.137ZM813.054 485.997V486.997C814.627 486.997 815.634 487.44 816.271 488.167C816.93 488.92 817.346 490.152 817.346 492.045H818.346H819.346C819.346 489.905 818.881 488.113 817.776 486.85C816.649 485.561 815.01 484.997 813.054 484.997V485.997ZM818.346 492.045H817.346C817.346 505.907 810.137 528.151 795.519 558.899L796.423 559.329L797.326 559.758C811.94 529.018 819.346 506.406 819.346 492.045H818.346ZM796.423 559.329L795.518 558.903C775.622 601.212 757.327 632.884 740.639 653.964C723.903 675.105 708.982 685.337 695.874 685.337V686.337V687.337C709.983 687.337 725.428 676.4 742.208 655.205C759.036 633.949 777.407 602.117 797.327 559.754L796.423 559.329ZM603.642 444.417V443.417C589.029 443.417 573.648 454.351 557.487 475.563L558.282 476.169L559.078 476.775C575.173 455.65 590.032 445.417 603.642 445.417V444.417ZM558.282 476.169L557.485 475.566C541.718 496.419 533.846 521.08 533.846 549.501H534.846H535.846C535.846 521.474 543.599 497.246 559.08 476.772L558.282 476.169ZM534.846 549.501H533.846C533.846 577.81 537.889 601.145 546.029 619.459L546.942 619.053L547.856 618.646C539.868 600.672 535.846 577.639 535.846 549.501H534.846ZM546.942 619.053L546.038 619.48C554.682 637.785 566.039 647.269 580.206 647.269V646.269V645.269C567.158 645.269 556.339 636.608 547.847 618.626L546.942 619.053ZM580.206 646.269V647.269C584.774 647.269 589.666 644.43 594.857 639.175C600.075 633.893 605.746 626.017 611.876 615.59C624.139 594.73 638.337 563.486 654.471 521.89L653.538 521.529L652.606 521.167C636.484 562.731 622.332 593.857 610.151 614.577C604.059 624.94 598.485 632.657 593.434 637.77C588.356 642.91 583.955 645.269 580.206 645.269V646.269ZM653.538 521.529L654.531 521.653C655.04 517.582 655.545 510.746 656.049 501.169L655.05 501.117L654.052 501.064C653.548 510.639 653.045 517.412 652.546 521.405L653.538 521.529ZM655.05 501.117L656.046 501.216C657.054 491.136 657.81 483.576 658.314 478.536L657.318 478.437L656.323 478.337C655.819 483.377 655.063 490.937 654.055 501.017L655.05 501.117ZM657.318 478.437L658.19 477.946C653.54 469.679 645.321 462.009 633.646 454.902L633.126 455.757L632.607 456.611C644.116 463.616 652.025 471.066 656.447 478.927L657.318 478.437ZM633.126 455.757L633.69 454.93C622.523 447.316 612.496 443.417 603.642 443.417V444.417V445.417C611.925 445.417 621.554 449.077 632.563 456.583L633.126 455.757ZM884.733 451.221L883.742 451.088L883.733 451.154V451.221H884.733ZM886.245 439.881L887.236 440.013L887.245 439.947V439.881H886.245ZM840.885 446.685L841.692 447.275L841.697 447.267L841.703 447.26L840.885 446.685ZM828.033 499.605L829.013 499.409L829.013 499.409L828.033 499.605ZM831.057 512.457L830.095 512.731L830.121 512.821L830.162 512.904L831.057 512.457ZM837.861 523.797L837.029 524.351L837.029 524.351L837.861 523.797ZM844.665 533.625L843.865 534.225L843.871 534.234L843.878 534.242L844.665 533.625ZM852.981 544.209L853.8 543.635L853.784 543.613L853.767 543.591L852.981 544.209ZM860.541 554.037L859.834 554.744L860.477 555.387L861.178 554.807L860.541 554.037ZM954.285 481.461L954.878 482.266L954.885 482.261L954.285 481.461ZM961.845 500.361L962.384 501.203L962.392 501.198L962.399 501.193L961.845 500.361ZM870.369 567.645L869.725 566.88L869.031 567.464L869.545 568.211L870.369 567.645ZM865.077 669.705L865.758 670.437L865.758 670.437L865.077 669.705ZM825.009 585.789L825.705 586.507L826.371 585.861L825.777 585.148L825.009 585.789ZM811.401 571.425L810.668 572.105L810.681 572.119L810.694 572.132L811.401 571.425ZM796.281 554.793L795.481 555.393L795.503 555.423L795.528 555.451L796.281 554.793ZM784.941 538.917L784.098 539.456L784.108 539.471L784.119 539.486L784.941 538.917ZM801.573 426.273L802.261 426.999L802.27 426.989L801.573 426.273ZM894.561 409.641L893.854 410.348L893.866 410.36L893.878 410.372L894.561 409.641ZM836.349 600.153L837.175 599.59L836.496 598.592L835.642 599.446L836.349 600.153ZM843.909 658.365L844.677 659.005L844.697 658.981L844.715 658.956L843.909 658.365ZM884.733 451.221L885.724 451.353L887.236 440.013L886.245 439.881L885.254 439.748L883.742 451.088L884.733 451.221ZM886.245 439.881H887.245C887.245 435.147 885.857 431.427 882.927 428.915C880.026 426.429 875.78 425.273 870.369 425.273V426.273V427.273C875.541 427.273 879.234 428.384 881.625 430.434C883.987 432.458 885.245 435.542 885.245 439.881H886.245ZM870.369 426.273V425.273C859.797 425.273 849.708 432.409 840.067 446.109L840.885 446.685L841.703 447.26C851.214 433.744 860.781 427.273 870.369 427.273V426.273ZM840.885 446.685L840.077 446.095C830.472 459.239 825.521 470.293 825.521 479.193H826.521H827.521C827.521 470.956 832.145 460.339 841.692 447.275L840.885 446.685ZM826.521 479.193H825.521C825.521 487.789 826.026 494.668 827.052 499.801L828.033 499.605L829.013 499.409C828.024 494.462 827.521 487.732 827.521 479.193H826.521ZM828.033 499.605L827.052 499.801C828.064 504.858 829.078 509.169 830.095 512.731L831.057 512.457L832.018 512.182C831.02 508.688 830.018 504.432 829.013 499.409L828.033 499.605ZM831.057 512.457L830.162 512.904C831.701 515.98 833.994 519.799 837.029 524.351L837.861 523.797L838.693 523.242C835.68 518.722 833.437 514.981 831.951 512.009L831.057 512.457ZM837.861 523.797L837.029 524.351C840.054 528.889 842.335 532.185 843.865 534.225L844.665 533.625L845.465 533.025C843.97 531.032 841.715 527.776 838.693 523.242L837.861 523.797ZM844.665 533.625L843.878 534.242L852.194 544.826L852.981 544.209L853.767 543.591L845.451 533.007L844.665 533.625ZM852.981 544.209L852.161 544.782C855.683 549.812 858.25 553.16 859.834 554.744L860.541 554.037L861.248 553.33C859.807 551.889 857.335 548.685 853.8 543.635L852.981 544.209ZM860.541 554.037L861.178 554.807C887.368 533.15 918.6 508.97 954.878 482.266L954.285 481.461L953.692 480.655C917.393 507.375 886.13 531.579 859.903 553.266L860.541 554.037ZM954.285 481.461L954.885 482.261C956.728 480.878 958.785 480.193 961.089 480.193V479.193V478.193C958.352 478.193 955.874 479.019 953.685 480.661L954.285 481.461ZM961.089 479.193V480.193C963.429 480.193 965.007 480.832 966.019 481.944C967.047 483.075 967.649 484.868 967.649 487.509H968.649H969.649C969.649 484.605 968.991 482.24 967.499 480.599C965.99 478.94 963.789 478.193 961.089 478.193V479.193ZM968.649 487.509H967.649C967.649 492.725 965.542 496.694 961.29 499.529L961.845 500.361L962.399 501.193C967.219 497.979 969.649 493.38 969.649 487.509H968.649ZM961.845 500.361L961.305 499.519C929.013 520.206 898.486 542.659 869.725 566.88L870.369 567.645L871.013 568.41C899.707 544.246 930.164 521.844 962.384 501.203L961.845 500.361ZM870.369 567.645L869.545 568.211C880.521 584.176 886.001 601.62 886.001 620.565H887.001H888.001C888.001 601.206 882.393 583.369 871.193 567.078L870.369 567.645ZM887.001 620.565H886.001C886.001 639.426 878.818 655.545 864.395 668.973L865.077 669.705L865.758 670.437C880.568 656.648 888.001 640.007 888.001 620.565H887.001ZM865.077 669.705L864.395 668.973C849.99 682.385 831.597 689.117 809.133 689.117V690.117V691.117C832.029 691.117 850.932 684.24 865.758 670.437L865.077 669.705ZM809.133 690.117V689.117C797.936 689.117 789.724 686.441 784.309 681.267C778.902 676.1 776.113 668.279 776.113 657.609H775.113H774.113C774.113 668.611 776.993 677.043 782.927 682.713C788.852 688.374 797.65 691.117 809.133 691.117V690.117ZM775.113 657.609H776.113C776.113 650.112 780.122 640.433 788.408 628.506C796.672 616.611 809.096 602.613 825.705 586.507L825.009 585.789L824.313 585.071C807.658 601.221 795.133 615.32 786.765 627.365C778.42 639.378 774.113 649.481 774.113 657.609H775.113ZM825.009 585.789L825.777 585.148C823.225 582.086 818.66 577.27 812.108 570.718L811.401 571.425L810.694 572.132C817.245 578.683 821.752 583.443 824.241 586.429L825.009 585.789ZM811.401 571.425L812.134 570.744C805.584 563.691 800.552 558.155 797.033 554.134L796.281 554.793L795.528 555.451C799.066 559.494 804.114 565.047 810.668 572.105L811.401 571.425ZM796.281 554.793L797.081 554.193C794.067 550.175 790.295 544.894 785.763 538.347L784.941 538.917L784.119 539.486C788.658 546.043 792.446 551.346 795.481 555.393L796.281 554.793ZM784.941 538.917L785.783 538.378C777.819 525.935 773.845 512.513 773.845 498.093H772.845H771.845C771.845 512.904 775.934 526.699 784.098 539.456L784.941 538.917ZM772.845 498.093H773.845C773.845 468.593 783.334 444.929 802.26 426.999L801.573 426.273L800.885 425.547C781.507 443.904 771.845 468.12 771.845 498.093H772.845ZM801.573 426.273L802.27 426.989C821.282 408.478 841.455 399.301 862.809 399.301V398.301V397.301C840.818 397.301 820.168 406.771 800.875 425.556L801.573 426.273ZM862.809 398.301V399.301C876.227 399.301 886.529 403.023 893.854 410.348L894.561 409.641L895.268 408.934C887.473 401.138 876.606 397.301 862.809 397.301V398.301ZM894.561 409.641L893.878 410.372C901.313 417.311 904.901 424.372 904.901 431.565H905.901H906.901C906.901 423.637 902.929 416.083 895.243 408.91L894.561 409.641ZM905.901 431.565H904.901C904.901 440.086 903.893 446.334 901.972 450.417C901.017 452.445 899.856 453.899 898.519 454.846C897.191 455.787 895.633 456.269 893.805 456.269V457.269V458.269C896.009 458.269 897.979 457.679 899.675 456.478C901.361 455.283 902.72 453.524 903.782 451.268C905.892 446.783 906.901 440.179 906.901 431.565H905.901ZM893.805 457.269V456.269C890.86 456.269 888.827 455.772 887.555 454.925C886.356 454.125 885.733 452.945 885.733 451.221H884.733H883.733C883.733 453.528 884.622 455.373 886.446 456.589C888.199 457.757 890.701 458.269 893.805 458.269V457.269ZM836.349 600.153L835.642 599.446C825.53 609.557 817.912 618.754 812.817 627.034C807.727 635.304 805.109 642.734 805.109 649.293H806.109H807.109C807.109 643.251 809.53 636.191 814.52 628.082C819.505 619.982 827.007 610.908 837.056 600.86L836.349 600.153ZM806.109 649.293H805.109C805.109 655.505 806.729 660.346 810.141 663.622C813.546 666.891 818.565 668.437 825.009 668.437V667.437V666.437C818.853 666.437 814.421 664.959 811.526 662.179C808.639 659.407 807.109 655.176 807.109 649.293H806.109ZM825.009 667.437V668.437C832.879 668.437 839.456 665.27 844.677 659.005L843.909 658.365L843.141 657.724C838.281 663.555 832.258 666.437 825.009 666.437V667.437ZM843.909 658.365L844.715 658.956C856.18 643.322 853.394 623.41 837.175 599.59L836.349 600.153L835.522 600.715C851.56 624.271 853.813 643.167 843.102 657.773L843.909 658.365ZM992.847 641.733H991.847V641.749L991.847 641.765L992.847 641.733ZM993.603 665.169H994.603V665.153L994.602 665.136L993.603 665.169ZM946.731 681.801L946.427 682.754L946.447 682.76L946.468 682.765L946.731 681.801ZM933.879 608.469L932.882 608.381L932.881 608.394L933.879 608.469ZM945.975 442.905L946.682 443.612L946.682 443.612L945.975 442.905ZM972.435 420.981L971.845 420.173L971.837 420.179L971.83 420.184L972.435 420.981ZM1011.75 409.641L1012.55 409.041L1012.55 409.041L1011.75 409.641ZM998.895 496.581L997.974 496.189L997.912 496.335L997.898 496.493L998.895 496.581ZM995.115 556.305H994.115L995.996 556.777L995.115 556.305ZM1051.06 458.025L1051.89 458.585L1051.89 458.574L1051.9 458.562L1051.06 458.025ZM1128.17 425.517L1127.49 426.246L1127.5 426.256L1127.51 426.266L1128.17 425.517ZM1140.27 485.241L1139.27 485.191L1139.27 485.216V485.241H1140.27ZM1139.51 507.921L1138.51 507.83L1138.51 507.83L1139.51 507.921ZM1138.75 518.505H1137.75L1139.65 518.952L1138.75 518.505ZM1164.46 484.485L1163.68 483.855L1163.68 483.855L1164.46 484.485ZM1194.7 448.197L1193.99 447.49L1193.97 447.506L1193.96 447.524L1194.7 448.197ZM1212.09 431.565L1212.76 432.302L1212.78 432.287L1212.79 432.272L1212.09 431.565ZM1269.54 424.761L1268.88 425.513L1268.9 425.523L1268.91 425.533L1269.54 424.761ZM1274.83 549.501L1273.84 549.385L1273.84 549.395L1274.83 549.501ZM1272.57 647.781V648.781H1272.6L1272.63 648.779L1272.57 647.781ZM1308.1 616.029L1308.91 616.619L1308.91 616.61L1308.1 616.029ZM1352.7 535.137L1351.79 534.718L1351.79 534.729L1352.7 535.137ZM1363.29 559.329L1362.38 558.899L1362.38 558.903L1363.29 559.329ZM1221.91 674.241L1221.21 674.948L1221.25 674.987L1221.29 675.022L1221.91 674.241ZM1220.4 574.449L1219.41 574.359L1219.41 574.373L1220.4 574.449ZM1173.53 507.165L1172.82 506.457L1172.82 506.466L1173.53 507.165ZM1138.75 554.037L1139.74 554.21L1139.74 554.201L1138.75 554.037ZM1089.61 681.801L1089.28 682.744L1089.31 682.754L1089.34 682.762L1089.61 681.801ZM1079.03 593.349L1078.03 593.28L1079.03 593.349ZM1032.91 526.065L1033.75 526.608L1033.76 526.602L1032.91 526.065ZM995.871 597.885L994.887 597.703L994.884 597.72L994.881 597.738L995.871 597.885ZM992.847 641.733L991.847 641.765L992.603 665.201L993.603 665.169L994.602 665.136L993.846 641.7L992.847 641.733ZM993.603 665.169H992.603C992.603 672.162 991.598 677.246 989.71 680.549C987.871 683.768 985.176 685.337 981.507 685.337V686.337V687.337C985.901 687.337 989.255 685.377 991.447 681.541C993.591 677.788 994.603 672.287 994.603 665.169H993.603ZM981.507 686.337V685.337C969.495 685.337 957.992 683.835 946.994 680.836L946.731 681.801L946.468 682.765C957.646 685.814 969.326 687.337 981.507 687.337V686.337ZM946.731 681.801L947.034 680.848C941.544 679.101 937.522 677.132 934.89 674.979C932.277 672.841 931.099 670.581 931.099 668.193H930.099H929.099C929.099 671.348 930.692 674.129 933.623 676.527C936.535 678.909 940.829 680.972 946.427 682.754L946.731 681.801ZM930.099 668.193H931.099C931.099 662.192 932.354 642.333 934.876 608.543L933.879 608.469L932.881 608.394C930.363 642.14 929.099 662.097 929.099 668.193H930.099ZM933.879 608.469L934.875 608.557C937.899 574.278 939.415 548.538 939.415 531.357H938.415H937.415C937.415 548.447 935.906 574.115 932.883 608.381L933.879 608.469ZM938.415 531.357H939.415V486.753H938.415H937.415V531.357H938.415ZM938.415 486.753H939.415C939.415 474.683 940.044 465.045 941.29 457.817C942.546 450.533 944.398 445.895 946.682 443.612L945.975 442.905L945.268 442.198C942.511 444.954 940.583 450.144 939.319 457.477C938.045 464.865 937.415 474.63 937.415 486.753H938.415ZM945.975 442.905L946.682 443.612C951.67 438.623 960.443 431.35 973.04 421.777L972.435 420.981L971.83 420.184C959.226 429.763 950.359 437.106 945.268 442.198L945.975 442.905ZM972.435 420.981L973.025 421.788C979.555 417.016 985.115 413.458 989.712 411.097C994.338 408.722 997.88 407.617 1000.41 407.617V406.617V405.617C997.39 405.617 993.498 406.905 988.799 409.318C984.072 411.745 978.419 415.369 971.845 420.173L972.435 420.981ZM1000.41 406.617V407.617C1003.39 407.617 1005.75 407.866 1007.52 408.339C1009.31 408.815 1010.38 409.487 1010.95 410.241L1011.75 409.641L1012.55 409.041C1011.6 407.778 1010.03 406.938 1008.04 406.406C1006.03 405.871 1003.48 405.617 1000.41 405.617V406.617ZM1011.75 409.641L1010.95 410.241C1011.58 411.083 1012.1 412.37 1012.47 414.184C1012.83 415.988 1013.01 418.248 1013.01 420.981H1014.01H1015.01C1015.01 418.169 1014.82 415.767 1014.43 413.792C1014.03 411.825 1013.43 410.215 1012.55 409.041L1011.75 409.641ZM1014.01 420.981H1013.01C1013.01 447.563 1008 472.63 997.974 496.189L998.895 496.581L999.815 496.972C1009.95 473.156 1015.01 447.822 1015.01 420.981H1014.01ZM998.895 496.581L997.898 496.493C995.379 525.219 994.115 545.167 994.115 556.305H995.115H996.115C996.115 545.266 997.371 525.399 999.891 496.668L998.895 496.581ZM995.115 556.305L995.996 556.777C1022.71 506.873 1041.34 474.159 1051.89 458.585L1051.06 458.025L1050.23 457.464C1039.61 473.138 1020.94 505.944 994.233 555.833L995.115 556.305ZM1051.06 458.025L1051.9 458.562C1061.2 443.988 1070.02 433.115 1078.36 425.895C1086.71 418.671 1094.48 415.177 1101.71 415.177V414.177V413.177C1093.82 413.177 1085.59 416.99 1077.05 424.383C1068.51 431.779 1059.57 442.829 1050.22 457.487L1051.06 458.025ZM1101.71 414.177V415.177C1110.99 415.177 1119.58 418.831 1127.49 426.246L1128.17 425.517L1128.85 424.787C1120.64 417.082 1111.58 413.177 1101.71 413.177V414.177ZM1128.17 425.517L1127.51 426.266C1135.87 433.643 1140.02 442.697 1140.02 453.489H1141.02H1142.02C1142.02 442.104 1137.61 432.51 1128.83 424.767L1128.17 425.517ZM1141.02 453.489H1140.02C1140.02 464.562 1139.77 475.129 1139.27 485.191L1140.27 485.241L1141.27 485.291C1141.77 475.192 1142.02 464.592 1142.02 453.489H1141.02ZM1140.27 485.241H1139.27C1139.27 494.805 1139.01 502.33 1138.51 507.83L1139.51 507.921L1140.51 508.011C1141.01 502.423 1141.27 494.829 1141.27 485.241H1140.27ZM1139.51 507.921L1138.51 507.83C1138.01 513.36 1137.75 516.938 1137.75 518.505H1138.75H1139.75C1139.75 517.048 1140 513.569 1140.51 508.011L1139.51 507.921ZM1138.75 518.505L1139.65 518.952C1140.61 517.033 1143.19 513.264 1147.49 507.578C1151.76 501.922 1157.68 494.435 1165.24 485.114L1164.46 484.485L1163.68 483.855C1156.12 493.183 1150.19 500.69 1145.89 506.373C1141.62 512.028 1138.92 515.944 1137.86 518.057L1138.75 518.505ZM1164.46 484.485L1165.24 485.114C1180.36 466.462 1190.42 454.389 1195.44 448.869L1194.7 448.197L1193.96 447.524C1188.9 453.093 1178.8 465.212 1163.68 483.855L1164.46 484.485ZM1194.7 448.197L1195.41 448.904C1200.94 443.37 1206.72 437.836 1212.76 432.302L1212.09 431.565L1211.41 430.827C1205.35 436.381 1199.55 441.935 1193.99 447.49L1194.7 448.197ZM1212.09 431.565L1212.79 432.272C1224.34 420.729 1234.42 415.177 1243.08 415.177V414.177V413.177C1233.6 413.177 1223.02 419.216 1211.38 430.858L1212.09 431.565ZM1243.08 414.177V415.177C1252.39 415.177 1260.98 418.596 1268.88 425.513L1269.54 424.761L1270.2 424.008C1261.98 416.813 1252.93 413.177 1243.08 413.177V414.177ZM1269.54 424.761L1268.91 425.533C1277.26 432.409 1281.39 440.952 1281.39 451.221H1282.39H1283.39C1283.39 440.321 1278.96 431.224 1270.18 423.989L1269.54 424.761ZM1282.39 451.221H1281.39C1281.39 473.337 1278.88 506.05 1273.84 549.385L1274.83 549.501L1275.83 549.616C1280.87 506.263 1283.39 473.456 1283.39 451.221H1282.39ZM1274.83 549.501L1273.84 549.395C1269.31 592.218 1267.03 619.493 1267.03 631.149H1268.03H1269.03C1269.03 619.621 1271.29 592.463 1275.83 549.606L1274.83 549.501ZM1268.03 631.149H1267.03C1267.03 636.715 1267.41 640.982 1268.2 643.886C1268.6 645.335 1269.11 646.527 1269.81 647.374C1270.53 648.252 1271.45 648.781 1272.57 648.781V647.781V646.781C1272.17 646.781 1271.77 646.616 1271.36 646.108C1270.92 645.57 1270.49 644.683 1270.13 643.36C1269.41 640.72 1269.03 636.67 1269.03 631.149H1268.03ZM1272.57 647.781L1272.63 648.779C1277.26 648.506 1282.58 645.541 1288.54 640.21C1294.54 634.852 1301.33 626.978 1308.91 616.619L1308.1 616.029L1307.29 615.438C1299.75 625.743 1293.06 633.493 1287.21 638.719C1281.33 643.972 1276.44 646.551 1272.51 646.782L1272.57 647.781ZM1308.1 616.029L1308.91 616.61C1324.08 595.371 1338.98 568.344 1353.62 535.544L1352.7 535.137L1351.79 534.729C1337.19 567.449 1322.35 594.35 1307.28 615.447L1308.1 616.029ZM1352.7 535.137L1353.61 535.556C1361.17 519.182 1367.2 506.923 1371.72 498.766C1373.98 494.683 1375.85 491.657 1377.32 489.662C1378.06 488.662 1378.68 487.954 1379.17 487.507C1379.71 487.017 1379.94 486.997 1379.92 486.997V485.997V484.997C1379.14 484.997 1378.42 485.489 1377.83 486.022C1377.19 486.599 1376.49 487.427 1375.71 488.474C1374.16 490.574 1372.25 493.69 1369.97 497.797C1365.42 506.02 1359.36 518.332 1351.79 534.718L1352.7 535.137ZM1379.92 485.997V486.997C1381.49 486.997 1382.5 487.44 1383.14 488.167C1383.79 488.92 1384.21 490.152 1384.21 492.045H1385.21H1386.21C1386.21 489.905 1385.75 488.113 1384.64 486.85C1383.51 485.561 1381.87 484.997 1379.92 484.997V485.997ZM1385.21 492.045H1384.21C1384.21 505.907 1377 528.151 1362.38 558.899L1363.29 559.329L1364.19 559.758C1378.8 529.018 1386.21 506.406 1386.21 492.045H1385.21ZM1363.29 559.329L1362.38 558.903C1342.49 601.212 1324.19 632.884 1307.5 653.964C1290.77 675.105 1275.85 685.337 1262.74 685.337V686.337V687.337C1276.85 687.337 1292.29 676.4 1309.07 655.205C1325.9 633.949 1344.27 602.117 1364.19 559.754L1363.29 559.329ZM1262.74 686.337V685.337C1245.76 685.337 1232.39 681.341 1222.54 673.46L1221.91 674.241L1221.29 675.022C1231.6 683.268 1245.45 687.337 1262.74 687.337V686.337ZM1221.91 674.241L1222.62 673.534C1221.07 671.987 1219.8 669.083 1218.93 664.6C1218.06 660.152 1217.62 654.301 1217.62 647.025H1216.62H1215.62C1215.62 654.364 1216.06 660.357 1216.96 664.982C1217.86 669.57 1219.23 672.967 1221.21 674.948L1221.91 674.241ZM1216.62 647.025H1217.62C1217.62 631.945 1218.88 607.786 1221.4 574.524L1220.4 574.449L1219.41 574.373C1216.89 607.64 1215.62 631.864 1215.62 647.025H1216.62ZM1220.4 574.449L1221.4 574.538C1224.42 540.764 1225.94 515.527 1225.94 498.849H1224.94H1223.94C1223.94 515.434 1222.43 540.597 1219.41 574.359L1220.4 574.449ZM1224.94 498.849H1225.94C1225.94 490.503 1225.25 484.136 1223.81 479.821C1222.38 475.533 1220.06 472.901 1216.62 472.901V473.901V474.901C1218.73 474.901 1220.57 476.426 1221.91 480.454C1223.24 484.456 1223.94 490.562 1223.94 498.849H1224.94ZM1216.62 473.901V472.901C1214.74 472.901 1212.44 473.686 1209.78 475.096C1207.09 476.519 1203.94 478.635 1200.32 481.425C1193.09 487.007 1183.92 495.358 1172.82 506.458L1173.53 507.165L1174.24 507.872C1185.31 496.796 1194.41 488.514 1201.55 483.008C1205.11 480.255 1208.17 478.213 1210.71 476.863C1213.28 475.501 1215.23 474.901 1216.62 474.901V473.901ZM1173.53 507.165L1172.82 506.466C1161.96 517.569 1153.61 527.056 1147.78 534.919C1141.97 542.746 1138.57 549.084 1137.77 553.872L1138.75 554.037L1139.74 554.201C1140.46 549.917 1143.6 543.907 1149.39 536.11C1155.14 528.35 1163.43 518.936 1174.25 507.864L1173.53 507.165ZM1138.75 554.037L1137.77 553.863C1134.73 571.101 1133.22 608.237 1133.22 665.169H1134.22H1135.22C1135.22 608.196 1136.73 571.244 1139.74 554.21L1138.75 554.037ZM1134.22 665.169H1133.22C1133.22 672.168 1132.28 677.262 1130.5 680.572C1129.62 682.213 1128.55 683.392 1127.31 684.165C1126.07 684.935 1124.61 685.337 1122.88 685.337V686.337V687.337C1124.93 687.337 1126.77 686.856 1128.37 685.863C1129.96 684.871 1131.25 683.405 1132.27 681.517C1134.27 677.771 1135.22 672.281 1135.22 665.169H1134.22ZM1122.88 686.337V685.337C1111.37 685.337 1100.38 683.836 1089.89 680.839L1089.61 681.801L1089.34 682.762C1100.02 685.813 1111.2 687.337 1122.88 687.337V686.337ZM1089.61 681.801L1089.94 680.857C1084.97 679.114 1081.32 677.153 1078.94 675.009C1076.58 672.885 1075.49 670.619 1075.49 668.193H1074.49H1073.49C1073.49 671.31 1074.93 674.084 1077.61 676.496C1080.26 678.889 1084.18 680.959 1089.28 682.744L1089.61 681.801ZM1074.49 668.193H1075.49C1075.49 662.189 1077 637.29 1080.03 593.417L1079.03 593.349L1078.03 593.28C1075.01 637.103 1073.49 662.1 1073.49 668.193H1074.49ZM1079.03 593.349L1080.03 593.417C1083.05 549.57 1084.57 518.795 1084.57 501.117H1083.57H1082.57C1082.57 518.718 1081.06 549.431 1078.03 593.28L1079.03 593.349ZM1083.57 501.117H1084.57C1084.57 492.015 1083.81 485.081 1082.25 480.388C1080.69 475.722 1078.18 472.901 1074.49 472.901V473.901V474.901C1076.85 474.901 1078.88 476.615 1080.35 481.021C1081.81 485.401 1082.57 492.074 1082.57 501.117H1083.57ZM1074.49 473.901V472.901C1073.55 472.901 1072.55 473.263 1071.53 473.847C1070.49 474.438 1069.35 475.303 1068.11 476.416C1065.62 478.644 1062.64 481.954 1059.16 486.318C1052.2 495.054 1043.17 508.13 1032.07 525.527L1032.91 526.065L1033.76 526.602C1044.84 509.223 1053.83 496.217 1060.72 487.565C1064.17 483.236 1067.08 480.025 1069.44 477.906C1070.63 476.846 1071.65 476.08 1072.52 475.584C1073.4 475.082 1074.05 474.901 1074.49 474.901V473.901ZM1032.91 526.065L1032.08 525.521C1020.98 542.672 1012.33 557.255 1006.13 569.265C999.948 581.256 996.175 590.75 994.887 597.703L995.871 597.885L996.854 598.067C998.086 591.412 1001.75 582.131 1007.91 570.182C1014.06 558.252 1022.68 543.729 1033.75 526.608L1032.91 526.065ZM995.871 597.885L994.881 597.738C992.857 611.401 991.847 626.066 991.847 641.733H992.847H993.847C993.847 626.151 994.852 611.585 996.86 598.031L995.871 597.885ZM1416.2 343.869L1417.01 344.457L1417.02 344.448L1417.02 344.44L1416.2 343.869ZM1345.14 674.241L1344.43 674.948L1344.47 674.987L1344.51 675.022L1345.14 674.241ZM1344.38 528.333L1343.38 528.263L1343.38 528.273L1344.38 528.333ZM1353.45 445.929L1352.6 445.399L1352.6 445.399L1353.45 445.929ZM1376.89 423.249L1376.24 422.485L1376.24 422.485L1376.89 423.249ZM1413.93 464.829L1412.95 464.626L1412.95 464.642L1412.95 464.659L1413.93 464.829ZM1404.86 496.581L1403.98 496.107L1403.95 496.159L1403.93 496.214L1404.86 496.581ZM1399.57 647.781V648.781H1399.6L1399.63 648.779L1399.57 647.781ZM1435.1 616.029L1435.91 616.619L1435.91 616.61L1435.1 616.029ZM1479.7 535.137L1478.8 534.718L1478.79 534.729L1479.7 535.137ZM1490.29 559.329L1489.39 558.899L1489.38 558.903L1490.29 559.329ZM1367.82 312.873H1368.82C1368.82 304.222 1373.36 296.686 1382.75 290.262L1382.18 289.437L1381.62 288.611C1371.85 295.292 1366.82 303.379 1366.82 312.873H1367.82ZM1382.18 289.437L1382.75 290.262C1392.24 283.767 1400.61 280.609 1407.88 280.609V279.609V278.609C1400.04 278.609 1391.28 282.002 1381.62 288.611L1382.18 289.437ZM1407.88 279.609V280.609C1414.5 280.609 1419.28 282.5 1422.44 286.124C1425.62 289.775 1427.3 295.355 1427.3 303.045H1428.3H1429.3C1429.3 295.11 1427.57 288.972 1423.95 284.811C1420.3 280.623 1414.88 278.609 1407.88 278.609V279.609ZM1428.3 303.045H1427.3C1427.3 318.487 1423.31 331.891 1415.38 343.298L1416.2 343.869L1417.02 344.44C1425.21 332.662 1429.3 318.85 1429.3 303.045H1428.3ZM1416.2 343.869L1415.39 343.28C1407.53 354.09 1396.5 359.501 1382.18 359.501V360.501V361.501C1397.09 361.501 1408.74 355.823 1417.01 344.457L1416.2 343.869ZM1382.18 360.501V359.501C1380.1 359.501 1378.27 358.655 1376.64 356.853C1374.98 355.022 1373.54 352.202 1372.37 348.305C1370.01 340.511 1368.82 328.723 1368.82 312.873H1367.82H1366.82C1366.82 328.774 1368.01 340.8 1370.45 348.882C1371.67 352.923 1373.22 356.057 1375.15 358.195C1377.12 360.361 1379.47 361.501 1382.18 361.501V360.501ZM1389.74 686.337V685.337C1370.2 685.337 1355.59 681.325 1345.76 673.46L1345.14 674.241L1344.51 675.022C1354.84 683.285 1369.97 687.337 1389.74 687.337V686.337ZM1345.14 674.241L1345.84 673.534C1345.12 672.815 1344.41 671.54 1343.77 669.582C1343.14 667.643 1342.59 665.123 1342.16 662.006C1341.29 655.773 1340.84 647.258 1340.84 636.441H1339.84H1338.84C1338.84 647.296 1339.29 655.916 1340.18 662.283C1340.62 665.466 1341.18 668.113 1341.87 670.205C1342.55 672.28 1343.38 673.903 1344.43 674.948L1345.14 674.241ZM1339.84 636.441H1340.84C1340.84 614.801 1342.35 578.792 1345.38 528.393L1344.38 528.333L1343.38 528.273C1340.36 578.674 1338.84 614.736 1338.84 636.441H1339.84ZM1344.38 528.333L1345.38 528.402C1347.14 502.954 1348.78 483.377 1350.29 469.663C1351.04 462.805 1351.77 457.427 1352.45 453.52C1352.8 451.566 1353.13 449.995 1353.45 448.798C1353.78 447.573 1354.07 446.827 1354.3 446.459L1353.45 445.929L1352.6 445.399C1352.21 446.038 1351.85 447.033 1351.52 448.281C1351.18 449.556 1350.83 451.19 1350.48 453.174C1349.78 457.142 1349.06 462.569 1348.3 469.444C1346.79 483.198 1345.15 502.807 1343.38 528.263L1344.38 528.333ZM1353.45 445.929L1354.3 446.459C1355.49 444.555 1357.99 441.73 1361.9 437.953C1365.78 434.195 1370.99 429.549 1377.53 424.012L1376.89 423.249L1376.24 422.485C1369.68 428.036 1364.43 432.714 1360.51 436.516C1356.6 440.299 1353.94 443.27 1352.6 445.399L1353.45 445.929ZM1376.89 423.249L1377.53 424.012C1384.06 418.492 1389.8 414.379 1394.76 411.651C1399.73 408.914 1403.84 407.617 1407.13 407.617V406.617V405.617C1403.36 405.617 1398.9 407.091 1393.79 409.898C1388.68 412.714 1382.82 416.917 1376.24 422.485L1376.89 423.249ZM1407.13 406.617V407.617C1408.79 407.617 1410.21 408.135 1411.44 409.176C1412.7 410.233 1413.8 411.869 1414.7 414.166C1416.52 418.776 1417.47 425.805 1417.47 435.345H1418.47H1419.47C1419.47 425.732 1418.52 418.398 1416.56 413.431C1415.58 410.94 1414.32 408.985 1412.74 407.648C1411.13 406.296 1409.25 405.617 1407.13 405.617V406.617ZM1418.47 435.345H1417.47C1417.47 440.266 1415.98 449.994 1412.95 464.626L1413.93 464.829L1414.91 465.031C1417.93 450.431 1419.47 440.504 1419.47 435.345H1418.47ZM1413.93 464.829L1412.95 464.659C1410.43 479.252 1407.43 489.703 1403.98 496.107L1404.86 496.581L1405.74 497.055C1409.35 490.354 1412.39 479.637 1414.92 464.999L1413.93 464.829ZM1404.86 496.581L1403.93 496.214C1400.59 504.686 1398.13 519.882 1396.49 541.677C1394.85 563.51 1394.03 592.077 1394.03 627.369H1395.03H1396.03C1396.03 592.1 1396.85 563.589 1398.49 541.827C1400.13 520.026 1402.58 505.107 1405.79 496.947L1404.86 496.581ZM1395.03 627.369H1394.03C1394.03 634.19 1394.41 639.382 1395.19 642.895C1395.58 644.643 1396.08 646.059 1396.75 647.06C1397.43 648.08 1398.37 648.781 1399.57 648.781V647.781V646.781C1399.26 646.781 1398.87 646.63 1398.42 645.95C1397.95 645.25 1397.51 644.114 1397.14 642.461C1396.41 639.169 1396.03 634.155 1396.03 627.369H1395.03ZM1399.57 647.781L1399.63 648.779C1404.26 648.506 1409.58 645.541 1415.54 640.21C1421.54 634.852 1428.33 626.978 1435.91 616.619L1435.1 616.029L1434.29 615.438C1426.75 625.743 1420.06 633.493 1414.21 638.719C1408.33 643.972 1403.44 646.551 1399.51 646.782L1399.57 647.781ZM1435.1 616.029L1435.91 616.61C1451.08 595.371 1465.98 568.344 1480.62 535.544L1479.7 535.137L1478.79 534.729C1464.19 567.449 1449.36 594.35 1434.29 615.447L1435.1 616.029ZM1479.7 535.137L1480.61 535.556C1488.17 519.182 1494.21 506.923 1498.72 498.766C1500.98 494.683 1502.85 491.657 1504.32 489.662C1505.06 488.662 1505.68 487.954 1506.17 487.507C1506.72 487.017 1506.94 486.997 1506.92 486.997V485.997V484.997C1506.14 484.997 1505.42 485.489 1504.83 486.022C1504.19 486.599 1503.49 487.427 1502.71 488.474C1501.16 490.574 1499.25 493.69 1496.97 497.797C1492.42 506.02 1486.36 518.332 1478.8 534.718L1479.7 535.137ZM1506.92 485.997V486.997C1508.49 486.997 1509.5 487.44 1510.14 488.167C1510.8 488.92 1511.21 490.152 1511.21 492.045H1512.21H1513.21C1513.21 489.905 1512.75 488.113 1511.64 486.85C1510.51 485.561 1508.88 484.997 1506.92 484.997V485.997ZM1512.21 492.045H1511.21C1511.21 505.907 1504 528.151 1489.39 558.899L1490.29 559.329L1491.19 559.758C1505.81 529.018 1513.21 506.406 1513.21 492.045H1512.21ZM1490.29 559.329L1489.38 558.903C1469.49 601.212 1451.19 632.884 1434.51 653.964C1417.77 675.105 1402.85 685.337 1389.74 685.337V686.337V687.337C1403.85 687.337 1419.29 676.4 1436.07 655.205C1452.9 633.949 1471.27 602.117 1491.19 559.754L1490.29 559.329ZM1530.97 641.733H1529.97V641.749L1529.97 641.765L1530.97 641.733ZM1531.72 665.169H1532.72V665.153L1532.72 665.136L1531.72 665.169ZM1484.85 681.801L1484.55 682.754L1484.57 682.76L1484.59 682.765L1484.85 681.801ZM1472 608.469L1471 608.381L1471 608.394L1472 608.469ZM1484.09 442.905L1484.8 443.612L1484.8 443.612L1484.09 442.905ZM1510.55 420.981L1509.96 420.173L1509.96 420.179L1509.95 420.184L1510.55 420.981ZM1549.87 409.641L1550.67 409.041L1550.67 409.041L1549.87 409.641ZM1537.01 496.581L1536.09 496.189L1536.03 496.335L1536.02 496.493L1537.01 496.581ZM1533.23 556.305H1532.23V559.607L1534.07 556.859L1533.23 556.305ZM1564.99 504.897L1564.13 504.374L1564.13 504.374L1564.99 504.897ZM1613.37 436.101L1612.64 435.419L1612.63 435.426L1612.62 435.433L1613.37 436.101ZM1677.63 424.761L1676.97 425.513L1676.98 425.523L1676.99 425.533L1677.63 424.761ZM1682.92 549.501L1681.93 549.385L1681.93 549.395L1682.92 549.501ZM1680.65 647.781V648.781H1680.68L1680.71 648.779L1680.65 647.781ZM1716.19 616.029L1716.99 616.619L1717 616.61L1716.19 616.029ZM1760.79 535.137L1759.88 534.718L1759.88 534.729L1760.79 535.137ZM1771.37 559.329L1770.47 558.899L1770.47 558.903L1771.37 559.329ZM1626.22 674.241L1625.51 674.948L1625.55 674.987L1625.6 675.022L1626.22 674.241ZM1624.71 574.449L1623.71 574.359L1623.71 574.373L1624.71 574.449ZM1574.81 526.065L1575.62 526.649L1575.63 526.644L1574.81 526.065ZM1535.5 591.837L1536.49 592.006L1536.49 591.993L1535.5 591.837ZM1530.97 641.733L1529.97 641.765L1530.72 665.201L1531.72 665.169L1532.72 665.136L1531.96 641.7L1530.97 641.733ZM1531.72 665.169H1530.72C1530.72 672.162 1529.72 677.246 1527.83 680.549C1525.99 683.768 1523.29 685.337 1519.63 685.337V686.337V687.337C1524.02 687.337 1527.37 685.377 1529.57 681.541C1531.71 677.788 1532.72 672.287 1532.72 665.169H1531.72ZM1519.63 686.337V685.337C1507.61 685.337 1496.11 683.835 1485.11 680.836L1484.85 681.801L1484.59 682.765C1495.76 685.814 1507.44 687.337 1519.63 687.337V686.337ZM1484.85 681.801L1485.15 680.848C1479.66 679.101 1475.64 677.132 1473.01 674.979C1470.4 672.841 1469.22 670.581 1469.22 668.193H1468.22H1467.22C1467.22 671.348 1468.81 674.129 1471.74 676.527C1474.65 678.909 1478.95 680.972 1484.55 682.754L1484.85 681.801ZM1468.22 668.193H1469.22C1469.22 662.192 1470.47 642.333 1472.99 608.543L1472 608.469L1471 608.394C1468.48 642.14 1467.22 662.097 1467.22 668.193H1468.22ZM1472 608.469L1472.99 608.557C1476.02 574.278 1477.53 548.538 1477.53 531.357H1476.53H1475.53C1475.53 548.447 1474.02 574.115 1471 608.381L1472 608.469ZM1476.53 531.357H1477.53V486.753H1476.53H1475.53V531.357H1476.53ZM1476.53 486.753H1477.53C1477.53 474.683 1478.16 465.045 1479.41 457.817C1480.66 450.533 1482.52 445.895 1484.8 443.612L1484.09 442.905L1483.39 442.198C1480.63 444.954 1478.7 450.144 1477.44 457.477C1476.16 464.865 1475.53 474.63 1475.53 486.753H1476.53ZM1484.09 442.905L1484.8 443.612C1489.79 438.623 1498.56 431.35 1511.16 421.777L1510.55 420.981L1509.95 420.184C1497.34 429.763 1488.48 437.106 1483.39 442.198L1484.09 442.905ZM1510.55 420.981L1511.14 421.788C1517.67 417.016 1523.23 413.458 1527.83 411.097C1532.46 408.722 1536 407.617 1538.53 407.617V406.617V405.617C1535.51 405.617 1531.62 406.905 1526.92 409.318C1522.19 411.745 1516.54 415.369 1509.96 420.173L1510.55 420.981ZM1538.53 406.617V407.617C1541.5 407.617 1543.87 407.866 1545.64 408.339C1547.42 408.815 1548.5 409.487 1549.07 410.241L1549.87 409.641L1550.67 409.041C1549.72 407.778 1548.15 406.938 1546.15 406.406C1544.15 405.871 1541.59 405.617 1538.53 405.617V406.617ZM1549.87 409.641L1549.07 410.241C1549.7 411.083 1550.22 412.37 1550.59 414.184C1550.95 415.988 1551.13 418.248 1551.13 420.981H1552.13H1553.13C1553.13 418.169 1552.94 415.767 1552.55 413.792C1552.15 411.825 1551.55 410.215 1550.67 409.041L1549.87 409.641ZM1552.13 420.981H1551.13C1551.13 447.563 1546.12 472.63 1536.09 496.189L1537.01 496.581L1537.93 496.972C1548.07 473.156 1553.13 447.822 1553.13 420.981H1552.13ZM1537.01 496.581L1536.02 496.493C1533.5 525.219 1532.23 545.167 1532.23 556.305H1533.23H1534.23C1534.23 545.266 1535.49 525.399 1538.01 496.668L1537.01 496.581ZM1533.23 556.305L1534.07 556.859C1536.1 553.815 1546.69 536.653 1565.84 505.419L1564.99 504.897L1564.13 504.374C1544.97 535.636 1534.4 552.747 1532.4 555.75L1533.23 556.305ZM1564.99 504.897L1565.84 505.419C1584.98 474.187 1601.07 451.316 1614.11 436.768L1613.37 436.101L1612.62 435.433C1599.46 450.117 1583.29 473.111 1564.13 504.374L1564.99 504.897ZM1613.37 436.101L1614.1 436.782C1627.67 422.207 1639.51 415.177 1649.66 415.177V414.177V413.177C1638.63 413.177 1626.28 420.763 1612.64 435.419L1613.37 436.101ZM1649.66 414.177V415.177C1660 415.177 1669.09 418.615 1676.97 425.513L1677.63 424.761L1678.29 424.008C1670.04 416.795 1660.49 413.177 1649.66 413.177V414.177ZM1677.63 424.761L1676.99 425.533C1685.34 432.409 1689.48 440.952 1689.48 451.221H1690.48H1691.48C1691.48 440.321 1687.05 431.224 1678.26 423.989L1677.63 424.761ZM1690.48 451.221H1689.48C1689.48 473.337 1686.97 506.05 1681.93 549.385L1682.92 549.501L1683.91 549.616C1688.96 506.263 1691.48 473.456 1691.48 451.221H1690.48ZM1682.92 549.501L1681.93 549.395C1677.39 592.218 1675.12 619.493 1675.12 631.149H1676.12H1677.12C1677.12 619.621 1679.38 592.463 1683.92 549.606L1682.92 549.501ZM1676.12 631.149H1675.12C1675.12 636.715 1675.49 640.982 1676.29 643.886C1676.68 645.335 1677.2 646.527 1677.89 647.374C1678.61 648.252 1679.54 648.781 1680.65 648.781V647.781V646.781C1680.25 646.781 1679.86 646.616 1679.44 646.108C1679 645.57 1678.58 644.683 1678.22 643.36C1677.5 640.72 1677.12 636.67 1677.12 631.149H1676.12ZM1680.65 647.781L1680.71 648.779C1685.35 648.506 1690.66 645.541 1696.63 640.21C1702.62 634.852 1709.41 626.978 1716.99 616.619L1716.19 616.029L1715.38 615.438C1707.84 625.743 1701.14 633.493 1695.3 638.719C1689.42 643.972 1684.53 646.551 1680.59 646.782L1680.65 647.781ZM1716.19 616.029L1717 616.61C1732.17 595.371 1747.07 568.344 1761.7 535.544L1760.79 535.137L1759.88 534.729C1745.28 567.449 1730.44 594.35 1715.37 615.447L1716.19 616.029ZM1760.79 535.137L1761.7 535.556C1769.25 519.182 1775.29 506.923 1779.81 498.766C1782.07 494.683 1783.93 491.657 1785.41 489.662C1786.15 488.661 1786.76 487.954 1787.26 487.507C1787.8 487.017 1788.03 486.997 1788.01 486.997V485.997V484.997C1787.23 484.997 1786.51 485.489 1785.92 486.022C1785.28 486.599 1784.57 487.427 1783.8 488.474C1782.25 490.574 1780.33 493.69 1778.06 497.797C1773.5 506.02 1767.44 518.332 1759.88 534.718L1760.79 535.137ZM1788.01 485.997V486.997C1789.58 486.997 1790.59 487.44 1791.22 488.167C1791.88 488.92 1792.3 490.152 1792.3 492.045H1793.3H1794.3C1794.3 489.905 1793.83 488.113 1792.73 486.85C1791.6 485.561 1789.96 484.997 1788.01 484.997V485.997ZM1793.3 492.045H1792.3C1792.3 505.907 1785.09 528.151 1770.47 558.899L1771.37 559.329L1772.28 559.758C1786.89 529.018 1794.3 506.406 1794.3 492.045H1793.3ZM1771.37 559.329L1770.47 558.903C1750.57 601.212 1732.28 632.884 1715.59 653.964C1698.85 675.105 1683.93 685.337 1670.83 685.337V686.337V687.337C1684.93 687.337 1700.38 676.4 1717.16 655.205C1733.99 633.949 1752.36 602.117 1772.28 559.754L1771.37 559.329ZM1670.83 686.337V685.337C1651.28 685.337 1636.68 681.325 1626.85 673.46L1626.22 674.241L1625.6 675.022C1635.93 683.285 1651.06 687.337 1670.83 687.337V686.337ZM1626.22 674.241L1626.93 673.534C1625.38 671.987 1624.11 669.083 1623.23 664.6C1622.37 660.152 1621.93 654.301 1621.93 647.025H1620.93H1619.93C1619.93 654.364 1620.37 660.357 1621.27 664.982C1622.16 669.57 1623.53 672.967 1625.51 674.948L1626.22 674.241ZM1620.93 647.025H1621.93C1621.93 631.945 1623.19 607.786 1625.71 574.524L1624.71 574.449L1623.71 574.373C1621.19 607.64 1619.93 631.864 1619.93 647.025H1620.93ZM1624.71 574.449L1625.71 574.538C1628.73 540.764 1630.25 515.527 1630.25 498.849H1629.25H1628.25C1628.25 515.434 1626.74 540.597 1623.71 574.359L1624.71 574.449ZM1629.25 498.849H1630.25C1630.25 490.5 1629.49 484.121 1627.92 479.796C1627.13 477.628 1626.11 475.908 1624.82 474.723C1623.5 473.517 1621.94 472.901 1620.17 472.901V473.901V474.901C1621.43 474.901 1622.51 475.323 1623.47 476.197C1624.44 477.091 1625.31 478.49 1626.04 480.479C1627.49 484.47 1628.25 490.565 1628.25 498.849H1629.25ZM1620.17 473.901V472.901C1619.24 472.901 1618.22 473.26 1617.16 473.839C1616.09 474.425 1614.9 475.285 1613.58 476.396C1610.93 478.618 1607.71 481.923 1603.92 486.285C1596.33 495.017 1586.35 508.089 1574 525.486L1574.81 526.065L1575.63 526.644C1587.97 509.264 1597.9 496.255 1605.43 487.598C1609.2 483.267 1612.34 480.051 1614.86 477.926C1616.13 476.863 1617.21 476.093 1618.13 475.593C1619.05 475.085 1619.72 474.901 1620.17 474.901V473.901ZM1574.81 526.065L1574 525.48C1561.65 542.626 1552.18 556.701 1545.6 567.699C1542.32 573.197 1539.75 577.939 1537.9 581.918C1536.06 585.885 1534.91 589.15 1534.51 591.681L1535.5 591.837L1536.49 591.993C1536.85 589.735 1537.9 586.669 1539.72 582.76C1541.52 578.865 1544.06 574.188 1547.32 568.725C1553.85 557.798 1563.28 543.775 1575.62 526.649L1574.81 526.065ZM1535.5 591.837L1534.52 591.668C1531.48 609.356 1529.97 626.045 1529.97 641.733H1530.97H1531.97C1531.97 626.173 1533.47 609.598 1536.49 592.006L1535.5 591.837ZM1777.49 654.585L1776.7 655.193L1776.71 655.202L1777.49 654.585ZM1787.32 456.513L1786.55 455.878L1786.55 455.878L1787.32 456.513ZM1919.62 428.541L1918.97 429.297L1918.98 429.306L1918.99 429.315L1919.62 428.541ZM1897.7 542.697L1898.32 543.478L1898.32 543.476L1897.7 542.697ZM1804.71 574.449L1804.68 573.449L1803.6 573.479L1803.71 574.551L1804.71 574.449ZM1824.36 625.857L1823.57 626.461L1823.58 626.476L1823.59 626.491L1824.36 625.857ZM1905.26 636.441L1904.75 635.577L1904.75 635.577L1905.26 636.441ZM1938.52 606.201L1939.31 606.81L1939.31 606.808L1938.52 606.201ZM1992.95 511.701L1992.04 511.294L1992.03 511.307L1992.95 511.701ZM2002.02 492.045L2001.18 491.515L2001.15 491.555L2001.13 491.597L2002.02 492.045ZM1968 605.445L1968.86 605.97L1968.86 605.965L1968 605.445ZM1804.71 556.305L1803.71 556.271L1803.67 557.495L1804.88 557.291L1804.71 556.305ZM1869.72 527.577L1869.02 526.87L1869.01 526.876L1869 526.882L1869.72 527.577ZM1824.36 475.413L1825.26 475.86L1825.26 475.852L1824.36 475.413ZM1844.78 686.337V685.337C1816.84 685.337 1794.71 674.88 1778.28 653.967L1777.49 654.585L1776.71 655.202C1793.54 676.625 1816.26 687.337 1844.78 687.337V686.337ZM1777.49 654.585L1778.29 653.976C1761.79 632.478 1753.54 608.248 1753.54 581.253H1752.54H1751.54C1751.54 608.69 1759.93 633.348 1776.7 655.193L1777.49 654.585ZM1752.54 581.253H1753.54C1753.54 526.436 1765.11 485.122 1788.09 457.147L1787.32 456.513L1786.55 455.878C1763.16 484.352 1751.54 526.197 1751.54 581.253H1752.54ZM1787.32 456.513L1788.09 457.147C1811.09 429.157 1840.79 415.177 1877.28 415.177V414.177V413.177C1840.2 413.177 1809.92 427.421 1786.55 455.878L1787.32 456.513ZM1877.28 414.177V415.177C1894.22 415.177 1908.09 419.904 1918.97 429.297L1919.62 428.541L1920.27 427.784C1908.97 418.025 1894.62 413.177 1877.28 413.177V414.177ZM1919.62 428.541L1918.99 429.315C1929.81 438.171 1935.25 450.47 1935.25 466.341H1936.25H1937.25C1937.25 449.955 1931.6 437.054 1920.25 427.767L1919.62 428.541ZM1936.25 466.341H1935.25C1935.25 496.248 1922.56 521.423 1897.07 541.917L1897.7 542.697L1898.32 543.476C1924.24 522.642 1937.25 496.914 1937.25 466.341H1936.25ZM1897.7 542.697L1897.07 541.916C1872.06 561.921 1841.29 572.446 1804.68 573.449L1804.71 574.449L1804.74 575.448C1841.71 574.435 1872.93 563.792 1898.32 543.478L1897.7 542.697ZM1804.71 574.449L1803.71 574.551C1805.75 594.375 1812.36 611.688 1823.57 626.461L1824.36 625.857L1825.16 625.252C1814.19 610.794 1807.7 593.835 1805.7 574.347L1804.71 574.449ZM1824.36 625.857L1823.59 626.491C1835.33 640.782 1848.95 648.025 1864.43 648.025V647.025V646.025C1849.67 646.025 1836.58 639.156 1825.14 625.222L1824.36 625.857ZM1864.43 647.025V648.025C1879.71 648.025 1893.5 644.457 1905.76 637.304L1905.26 636.441L1904.75 635.577C1892.82 642.537 1879.39 646.025 1864.43 646.025V647.025ZM1905.26 636.441L1905.76 637.304C1917.99 630.173 1929.17 619.999 1939.31 606.81L1938.52 606.201L1937.73 605.591C1927.71 618.611 1916.72 628.597 1904.75 635.577L1905.26 636.441ZM1938.52 606.201L1939.31 606.808C1960.54 579.016 1978.72 547.443 1993.87 512.095L1992.95 511.701L1992.03 511.307C1976.94 546.518 1958.84 577.946 1937.73 605.594L1938.52 606.201ZM1992.95 511.701L1993.87 512.107C1997.9 503.036 2000.91 496.502 2002.92 492.492L2002.02 492.045L2001.13 491.597C1999.1 495.651 1996.07 502.221 1992.04 511.294L1992.95 511.701ZM2002.02 492.045L2002.87 492.575C2005.37 488.585 2007.63 486.997 2009.58 486.997V485.997V484.997C2006.5 484.997 2003.72 487.44 2001.18 491.515L2002.02 492.045ZM2009.58 485.997V486.997C2010.85 486.997 2011.66 487.404 2012.19 488.109C2012.75 488.867 2013.12 490.125 2013.12 492.045H2014.12H2015.12C2015.12 489.932 2014.73 488.166 2013.79 486.909C2012.8 485.597 2011.34 484.997 2009.58 484.997V485.997ZM2014.12 492.045H2013.12C2013.12 504.46 2009.33 520.073 2001.66 538.918C1994.01 557.751 1982.51 579.751 1967.15 604.924L1968 605.445L1968.86 605.965C1984.25 580.738 1995.8 558.638 2003.52 539.671C2011.23 520.717 2015.12 504.829 2015.12 492.045H2014.12ZM1968 605.445L1967.15 604.92C1934.01 658.652 1893.21 685.337 1844.78 685.337V686.337V687.337C1894.11 687.337 1935.47 660.094 1968.86 605.97L1968 605.445ZM1804.71 556.305L1804.88 557.291C1834.72 552.233 1856.63 542.599 1870.44 528.271L1869.72 527.577L1869 526.882C1855.61 540.778 1834.17 550.296 1804.54 555.319L1804.71 556.305ZM1869.72 527.577L1870.43 528.284C1884.76 513.958 1891.89 495.294 1891.89 472.389H1890.89H1889.89C1889.89 494.843 1882.92 512.971 1869.02 526.87L1869.72 527.577ZM1890.89 472.389H1891.89C1891.89 460.973 1890.06 452.239 1886.25 446.332C1882.4 440.349 1876.58 437.369 1868.97 437.369V438.369V439.369C1875.97 439.369 1881.12 442.058 1884.57 447.415C1888.07 452.848 1889.89 461.124 1889.89 472.389H1890.89ZM1868.97 438.369V437.369C1850.76 437.369 1835.63 450.145 1823.47 474.973L1824.36 475.413L1825.26 475.852C1837.29 451.288 1851.9 439.369 1868.97 439.369V438.369ZM1824.36 475.413L1823.47 474.965C1811.3 499.298 1804.72 526.406 1803.71 556.271L1804.71 556.305L1805.71 556.339C1806.71 526.732 1813.23 499.911 1825.26 475.86L1824.36 475.413Z" fill="white" mask="url(#path-13-outside-1_726_220)"/>
<path d="M2008.5 512.999C2008.5 512.999 2013.93 493.275 2016 484.675C2018.89 472.628 2021 457.999 2021 457.999" stroke="currentColor" stroke-width="5"/>
<path d="M2000.5 500.999C2000.5 500.999 2011 479.999 2015 468.999C2019 457.999 2018 461.499 2019 457.999" stroke="currentColor" stroke-width="5"/>
<path d="M2000.5 511.499C2000.5 511.499 2011 490.499 2015 479.499C2019 468.499 2018 471.999 2019 468.499" stroke="currentColor" stroke-width="5"/>
</svg>
