<svg width="798" height="903" viewBox="0 0 798 903" fill="none" xmlns="http://www.w3.org/2000/svg">
<path d="M630.472 106.658C608.289 112.883 586.691 119.937 580.571 143.176C573.139 171.394 608.289 192.995 608.289 192.995" stroke="#9A8300" stroke-width="7"/>
<path d="M636.156 302.17C648.541 293.982 664.023 288.523 670.215 263.959C676.408 239.395 648.541 217.561 648.541 217.561" stroke="#9A8300" stroke-width="7"/>
<path d="M555.652 356.756C509.208 419.531 527.019 506.122 537.074 553.268" stroke="#9A8300" stroke-width="7"/>
<path d="M203.5 811.5C219 858.5 254.463 893 314.463 898C374.463 903 399.963 891.714 414.963 884.5C454.963 865.262 474.075 830.192 484.438 818.012C503.016 796.177 514.755 766.155 524.69 733.403C534.624 700.651 540.484 626.927 546.364 572.372" stroke="#9A8300" stroke-width="7"/>
<path d="M620.169 113.011C592.302 224.914 455.397 899.085 455.397 899.085C455.397 899.085 641.843 244.019 691.383 113.011C740.924 -17.9966 678.33 3.86968 678.33 3.86968C678.33 3.86968 648.035 1.10721 620.169 113.011Z" fill="#9A8300" stroke="#9A8300" stroke-width="5"/>
<path d="M654.897 67.9501C649.919 81.114 631.887 133.513 648.036 136.213C664.186 138.913 675.952 97.9727 679.668 81.5967C683.383 65.2207 685.091 51.5741 675.903 48.8743C666.715 46.1746 659.875 54.7861 654.897 67.9501Z" fill="white" stroke="#9A8300" stroke-width="5"/>
<path d="M678.999 93.9062C666.614 96.6356 657.325 99.3649 641.844 104.824" stroke="#9A8300" stroke-width="7"/>
<path d="M654.897 67.9501C649.919 81.114 631.887 133.513 648.036 136.213C664.186 138.913 675.952 97.9727 679.668 81.5967C683.383 65.2207 685.091 51.5741 675.903 48.8743C666.715 46.1746 659.875 54.7861 654.897 67.9501Z" stroke="#9A8300" stroke-width="7"/>
<path d="M645.445 296.711C629.964 307.628 574.231 324.004 552.557 362.215" stroke="#9A8300" stroke-width="7"/>
<path d="M793.986 41.5C781.986 63.5 765.986 70.7532 747.986 78C729.986 85.2468 695.291 89.6341 668.982 96.2112" stroke="#9A8300" stroke-width="7"/>
<path d="M16.8286 803.324C16.8286 803.324 66.2781 810.873 110.65 819.801C155.022 828.73 201.401 802.936 201.401 802.936" stroke="#9A8300" stroke-width="7"/>
<path d="M18.9996 802.95C93.621 673.935 191.065 686.2 217.97 731.092" stroke="#9A8300" stroke-width="7"/>
<path d="M107.974 610.541C132.798 631.468 146.082 650.166 171.539 664.127" stroke="#9A8300" stroke-width="7"/>
<path d="M235.281 635.106C206.733 613.333 189.863 607.495 105.369 610.912" stroke="#9A8300" stroke-width="7"/>
<path d="M220.037 730.402C185.616 768.858 204.998 824.581 212.52 827.862C220.042 831.144 279.85 832.42 308.354 790.443" stroke="#9A8300" stroke-width="7"/>
<path d="M305.451 788.48C347.347 839.674 394.426 816.264 401.706 811.997C408.986 807.729 417.789 745.258 366.994 717.035" stroke="#9A8300" stroke-width="7"/>
<path d="M363.34 717.561C390.001 701.446 384.062 624.559 363.346 617.835C342.631 611.111 306.832 613.229 288.415 644.994" stroke="#9A8300" stroke-width="7"/>
<path d="M288.284 647.164C274.258 623.238 184.084 635.539 174.567 655.13C165.05 674.72 182.382 700.168 207.026 717.169" stroke="#9A8300" stroke-width="7"/>
<path d="M330.786 615.954C353.904 569.551 419.348 550.052 419.348 550.052" stroke="#9A8300" stroke-width="7"/>
<path d="M247.502 632.836C247.502 632.836 242.763 588.591 263.28 584.249C283.798 579.907 311.53 620.457 311.53 620.457" stroke="#9A8300" stroke-width="7"/>
<path d="M265.651 635.971C265.651 635.971 262.972 603.996 265.718 608.675C268.465 613.355 291.98 636.054 291.98 636.054" stroke="#9A8300" stroke-width="7"/>
<path d="M278.599 623.487C278.599 623.487 278.796 614.287 279.172 607.776C279.549 601.265 307.066 609.488 312.102 623.413" stroke="#9A8300" stroke-width="7"/>
<path d="M379.993 729.678C401.621 697.429 448.256 728.094 457.192 736.619C466.127 745.143 407.781 771.224 407.781 771.224" stroke="#9A8300" stroke-width="7"/>
<path d="M391.168 718.933C391.168 718.933 425.646 716.688 420.345 717.844C415.043 719.001 386.159 734.295 386.159 734.295" stroke="#9A8300" stroke-width="7"/>
<path d="M387.877 734.841C387.877 734.841 437.679 731.502 425.715 738.516C413.75 745.529 418.379 758.191 403.493 757.833" stroke="#9A8300" stroke-width="7"/>
<path d="M381.175 674.473C408.519 628.86 409.702 614.189 421.34 547.489" stroke="#9A8300" stroke-width="7"/>
<path d="M455.126 733.85C493.883 715.321 505.689 683.813 524.942 650.286" stroke="#9A8300" stroke-width="7"/>
<path d="M389.175 660.693C466.868 626.324 493.177 652.137 526.805 649.89" stroke="#9A8300" stroke-width="7"/>
<path d="M287.974 645.91C287.974 645.91 288.653 673.54 295.75 686.116" stroke="#9A8300" stroke-width="7"/>
<path d="M255.934 717.291C255.934 717.291 228.78 722.442 217.521 731.485" stroke="#9A8300" stroke-width="7"/>
<path d="M306.179 769.459C306.179 769.459 310.898 783.466 308.136 790.676" stroke="#9A8300" stroke-width="7"/>
<path d="M343.985 717.667C343.985 717.667 358.095 713.263 365.241 716.186" stroke="#9A8300" stroke-width="7"/>
<circle cx="281.841" cy="752.979" r="3.61739" transform="rotate(-30.3832 281.841 752.979)" fill="#9A8300"/>
<circle cx="305.121" cy="761.694" r="3.61739" transform="rotate(-30.3832 305.121 761.694)" fill="#9A8300"/>
<circle cx="328.687" cy="742.287" r="3.61739" transform="rotate(-30.3832 328.687 742.287)" fill="#9A8300"/>
<circle cx="291.7" cy="698.276" r="3.61739" transform="rotate(-30.3832 291.7 698.276)" fill="#9A8300"/>
<circle cx="309.919" cy="695.981" r="3.61739" transform="rotate(-30.3832 309.919 695.981)" fill="#9A8300"/>
<circle cx="264.227" cy="715.783" r="3.61739" transform="rotate(-30.3832 264.227 715.783)" fill="#9A8300"/>
<circle cx="270.179" cy="699.712" r="3.61739" transform="rotate(-30.3832 270.179 699.712)" fill="#9A8300"/>
<circle cx="268.244" cy="727.404" r="3.61739" transform="rotate(-30.3832 268.244 727.404)" fill="#9A8300"/>
<circle cx="280.617" cy="710.365" r="3.61739" transform="rotate(-30.3832 280.617 710.365)" fill="#9A8300"/>
<circle cx="286.324" cy="739.169" r="3.61739" transform="rotate(-30.3832 286.324 739.169)" fill="#9A8300"/>
<circle cx="335.496" cy="722.918" r="3.61739" transform="rotate(-30.3832 335.496 722.918)" fill="#9A8300"/>
<circle cx="322.009" cy="707.064" r="3.61739" transform="rotate(-30.3832 322.009 707.064)" fill="#9A8300"/>
<circle cx="303.359" cy="711.01" r="3.61739" transform="rotate(-30.3832 303.359 711.01)" fill="#9A8300"/>
<circle cx="284.815" cy="724.677" r="3.61739" transform="rotate(-30.3832 284.815 724.677)" fill="#9A8300"/>
<circle cx="269.321" cy="743.546" r="3.61739" transform="rotate(-30.3832 269.321 743.546)" fill="#9A8300"/>
<circle cx="314.554" cy="749.175" r="3.61739" transform="rotate(-30.3832 314.554 749.175)" fill="#9A8300"/>
<circle cx="317.709" cy="723.563" r="3.61739" transform="rotate(-30.3832 317.709 723.563)" fill="#9A8300"/>
<circle cx="302.034" cy="739.741" r="3.61739" transform="rotate(-30.3832 302.034 739.741)" fill="#9A8300"/>
</svg>
